<?xml version="1.0" encoding="UTF-8" standalone="no"?>
<!DOCTYPE svg PUBLIC "-//W3C//DTD SVG 1.1//EN"
 "http://www.w3.org/Graphics/SVG/1.1/DTD/svg11.dtd">
<!-- Generated by graphviz version 2.40.1 (20161225.0304)
 -->
<!-- Title: Database Structure Pages: 1 -->
<svg width="920pt" height="668pt"
 viewBox="0.00 0.00 920.00 668.40" xmlns="http://www.w3.org/2000/svg" xmlns:xlink="http://www.w3.org/1999/xlink">
<g id="graph0" class="graph" transform="scale(1 1) rotate(0) translate(4 664.4)">
<title>Database Structure</title>
<polygon fill="#ffffff" stroke="transparent" points="-4,4 -4,-664.4 916,-664.4 916,4 -4,4"/>
<text text-anchor="middle" x="456" y="-645.2" font-family="Helvetica,sans-Serif" font-size="14.00" fill="#000000">ER Diagram: travlendar+</text>
<!-- calendars -->
<g id="node1" class="node">
<title>calendars</title>
<polygon fill="#dddddd" stroke="transparent" points="480,-193.1693 480,-213.1693 568,-213.1693 568,-193.1693 480,-193.1693"/>
<polygon fill="none" stroke="#000000" points="480,-193.1693 480,-213.1693 568,-213.1693 568,-193.1693 480,-193.1693"/>
<text text-anchor="start" x="497.5723" y="-198.9693" font-family="Times,serif" font-size="14.00" fill="#000000">calendars</text>
<polygon fill="none" stroke="#000000" points="480,-173.1693 480,-193.1693 568,-193.1693 568,-173.1693 480,-173.1693"/>
<text text-anchor="start" x="508.5562" y="-179.9693" font-family="Times,serif" font-size="14.00" fill="#000000">id:</text>
<text text-anchor="start" x="523.3354" y="-179.9693" font-family="Helvetica,sans-Serif" font-style="oblique" font-size="10.00" fill="#000000">INT</text>
<polygon fill="none" stroke="#000000" points="480,-153.1693 480,-173.1693 568,-173.1693 568,-153.1693 480,-153.1693"/>
<text text-anchor="start" x="493.394" y="-159.9693" font-family="Times,serif" font-size="14.00" fill="#000000">user_id:</text>
<text text-anchor="start" x="538.4976" y="-159.9693" font-family="Helvetica,sans-Serif" font-style="oblique" font-size="10.00" fill="#000000">INT</text>
<polygon fill="none" stroke="#000000" points="480,-133.1693 480,-153.1693 568,-153.1693 568,-133.1693 480,-133.1693"/>
<text text-anchor="start" x="482.8169" y="-139.9693" font-family="Times,serif" font-size="14.00" fill="#000000">name:</text>
<text text-anchor="start" x="517.0239" y="-139.9693" font-family="Helvetica,sans-Serif" font-style="oblique" font-size="10.00" fill="#000000">VARCHAR</text>
<polygon fill="none" stroke="#000000" points="480,-113.1693 480,-133.1693 568,-133.1693 568,-113.1693 480,-113.1693"/>
<text text-anchor="start" x="483.5928" y="-119.9693" font-family="Times,serif" font-size="14.00" fill="#000000">color:</text>
<text text-anchor="start" x="516.248" y="-119.9693" font-family="Helvetica,sans-Serif" font-style="oblique" font-size="10.00" fill="#000000">VARCHAR</text>
</g>
<!-- users -->
<g id="node7" class="node">
<title>users</title>
<polygon fill="#dddddd" stroke="transparent" points="722,-444.1693 722,-464.1693 904,-464.1693 904,-444.1693 722,-444.1693"/>
<polygon fill="none" stroke="#000000" points="722,-444.1693 722,-464.1693 904,-464.1693 904,-444.1693 722,-444.1693"/>
<text text-anchor="start" x="798.6138" y="-449.9693" font-family="Times,serif" font-size="14.00" fill="#000000">users</text>
<polygon fill="none" stroke="#000000" points="722,-424.1693 722,-444.1693 904,-444.1693 904,-424.1693 722,-424.1693"/>
<text text-anchor="start" x="797.5562" y="-430.9693" font-family="Times,serif" font-size="14.00" fill="#000000">id:</text>
<text text-anchor="start" x="812.3354" y="-430.9693" font-family="Helvetica,sans-Serif" font-style="oblique" font-size="10.00" fill="#000000">INT</text>
<polygon fill="none" stroke="#000000" points="722,-404.1693 722,-424.1693 904,-424.1693 904,-404.1693 722,-404.1693"/>
<text text-anchor="start" x="756.2617" y="-410.9693" font-family="Times,serif" font-size="14.00" fill="#000000">user_token:</text>
<text text-anchor="start" x="821.5791" y="-410.9693" font-family="Helvetica,sans-Serif" font-style="oblique" font-size="10.00" fill="#000000">VARCHAR</text>
<polygon fill="none" stroke="#000000" points="722,-384.1693 722,-404.1693 904,-404.1693 904,-384.1693 722,-384.1693"/>
<text text-anchor="start" x="726.4795" y="-390.9693" font-family="Times,serif" font-size="14.00" fill="#000000">last_known_position_lat:</text>
<text text-anchor="start" x="868.0313" y="-390.9693" font-family="Helvetica,sans-Serif" font-style="oblique" font-size="10.00" fill="#000000">FLOAT</text>
<polygon fill="none" stroke="#000000" points="722,-364.1693 722,-384.1693 904,-384.1693 904,-364.1693 722,-364.1693"/>
<text text-anchor="start" x="724.5313" y="-370.9693" font-family="Times,serif" font-size="14.00" fill="#000000">last_known_position_lng:</text>
<text text-anchor="start" x="869.9795" y="-370.9693" font-family="Helvetica,sans-Serif" font-style="oblique" font-size="10.00" fill="#000000">FLOAT</text>
<polygon fill="none" stroke="#000000" points="722,-344.1693 722,-364.1693 904,-364.1693 904,-344.1693 722,-344.1693"/>
<text text-anchor="start" x="755.4351" y="-350.9693" font-family="Times,serif" font-size="14.00" fill="#000000">updated_at:</text>
<text text-anchor="start" x="820.7456" y="-350.9693" font-family="Helvetica,sans-Serif" font-style="oblique" font-size="10.00" fill="#000000">DATETIME</text>
</g>
<!-- calendars&#45;&gt;users -->
<g id="edge1" class="edge">
<title>calendars:user_id&#45;&gt;users:id</title>
<path fill="none" stroke="#444444" stroke-dasharray="5,2" d="M568,-163.1693C703.016,-163.1693 589.5474,-420.5823 711.945,-433.6541"/>
<polygon fill="#444444" stroke="#444444" points="721.8208,-437.6647 712.0131,-433.6575 722.1792,-430.6739 721.8208,-437.6647"/>
</g>
<!-- devices -->
<g id="node2" class="node">
<title>devices</title>
<polygon fill="#dddddd" stroke="transparent" points="459,-613.1693 459,-633.1693 590,-633.1693 590,-613.1693 459,-613.1693"/>
<polygon fill="none" stroke="#000000" points="459,-613.1693 459,-633.1693 590,-633.1693 590,-613.1693 459,-613.1693"/>
<text text-anchor="start" x="503.5103" y="-618.9693" font-family="Times,serif" font-size="14.00" fill="#000000">devices</text>
<polygon fill="none" stroke="#000000" points="459,-593.1693 459,-613.1693 590,-613.1693 590,-593.1693 459,-593.1693"/>
<text text-anchor="start" x="509.0562" y="-599.9693" font-family="Times,serif" font-size="14.00" fill="#000000">id:</text>
<text text-anchor="start" x="523.8354" y="-599.9693" font-family="Helvetica,sans-Serif" font-style="oblique" font-size="10.00" fill="#000000">INT</text>
<polygon fill="none" stroke="#000000" points="459,-573.1693 459,-593.1693 590,-593.1693 590,-573.1693 459,-573.1693"/>
<text text-anchor="start" x="493.894" y="-579.9693" font-family="Times,serif" font-size="14.00" fill="#000000">user_id:</text>
<text text-anchor="start" x="538.9976" y="-579.9693" font-family="Helvetica,sans-Serif" font-style="oblique" font-size="10.00" fill="#000000">INT</text>
<polygon fill="none" stroke="#000000" points="459,-553.1693 459,-573.1693 590,-573.1693 590,-553.1693 459,-553.1693"/>
<text text-anchor="start" x="461.5479" y="-559.9693" font-family="Times,serif" font-size="14.00" fill="#000000">access_token:</text>
<text text-anchor="start" x="539.293" y="-559.9693" font-family="Helvetica,sans-Serif" font-style="oblique" font-size="10.00" fill="#000000">VARCHAR</text>
<polygon fill="none" stroke="#000000" points="459,-533.1693 459,-553.1693 590,-553.1693 590,-533.1693 459,-533.1693"/>
<text text-anchor="start" x="477.501" y="-539.9693" font-family="Times,serif" font-size="14.00" fill="#000000">push_token:</text>
<text text-anchor="start" x="545.9424" y="-539.9693" font-family="Helvetica,sans-Serif" font-style="oblique" font-size="10.00" fill="#000000">TEXT</text>
<polygon fill="none" stroke="#000000" points="459,-513.1693 459,-533.1693 590,-533.1693 590,-513.1693 459,-513.1693"/>
<text text-anchor="start" x="464.6582" y="-519.9693" font-family="Times,serif" font-size="14.00" fill="#000000">device_type:</text>
<text text-anchor="start" x="536.1826" y="-519.9693" font-family="Helvetica,sans-Serif" font-style="oblique" font-size="10.00" fill="#000000">VARCHAR</text>
</g>
<!-- devices&#45;&gt;users -->
<g id="edge2" class="edge">
<title>devices:user_id&#45;&gt;users:id</title>
<path fill="none" stroke="#444444" stroke-dasharray="5,2" d="M590,-583.1693C674.8425,-583.1693 636.991,-446.1413 711.7688,-434.9007"/>
<polygon fill="#444444" stroke="#444444" points="722.2496,-437.6604 712.0255,-434.8825 721.7504,-430.6782 722.2496,-437.6604"/>
</g>
<!-- events -->
<g id="node3" class="node">
<title>events</title>
<polygon fill="#dddddd" stroke="transparent" points="213,-375.1693 213,-395.1693 313,-395.1693 313,-375.1693 213,-375.1693"/>
<polygon fill="none" stroke="#000000" points="213,-375.1693 213,-395.1693 313,-395.1693 313,-375.1693 213,-375.1693"/>
<text text-anchor="start" x="245.1172" y="-380.9693" font-family="Times,serif" font-size="14.00" fill="#000000">events</text>
<polygon fill="none" stroke="#000000" points="213,-355.1693 213,-375.1693 313,-375.1693 313,-355.1693 213,-355.1693"/>
<text text-anchor="start" x="247.5562" y="-361.9693" font-family="Times,serif" font-size="14.00" fill="#000000">id:</text>
<text text-anchor="start" x="262.3354" y="-361.9693" font-family="Helvetica,sans-Serif" font-style="oblique" font-size="10.00" fill="#000000">INT</text>
<polygon fill="none" stroke="#000000" points="213,-335.1693 213,-355.1693 313,-355.1693 313,-335.1693 213,-335.1693"/>
<text text-anchor="start" x="226.0894" y="-341.9693" font-family="Times,serif" font-size="14.00" fill="#000000">title:</text>
<text text-anchor="start" x="251.7515" y="-341.9693" font-family="Helvetica,sans-Serif" font-style="oblique" font-size="10.00" fill="#000000">VARCHAR</text>
<polygon fill="none" stroke="#000000" points="213,-315.1693 213,-335.1693 313,-335.1693 313,-315.1693 213,-315.1693"/>
<text text-anchor="start" x="215.9824" y="-321.9693" font-family="Times,serif" font-size="14.00" fill="#000000">address:</text>
<text text-anchor="start" x="261.8584" y="-321.9693" font-family="Helvetica,sans-Serif" font-style="oblique" font-size="10.00" fill="#000000">VARCHAR</text>
<polygon fill="none" stroke="#000000" points="213,-295.1693 213,-315.1693 313,-315.1693 313,-295.1693 213,-295.1693"/>
<text text-anchor="start" x="238.314" y="-301.9693" font-family="Times,serif" font-size="14.00" fill="#000000">lat:</text>
<text text-anchor="start" x="256.1968" y="-301.9693" font-family="Helvetica,sans-Serif" font-style="oblique" font-size="10.00" fill="#000000">FLOAT</text>
<polygon fill="none" stroke="#000000" points="213,-275.1693 213,-295.1693 313,-295.1693 313,-275.1693 213,-275.1693"/>
<text text-anchor="start" x="236.3657" y="-281.9693" font-family="Times,serif" font-size="14.00" fill="#000000">lng:</text>
<text text-anchor="start" x="258.145" y="-281.9693" font-family="Helvetica,sans-Serif" font-style="oblique" font-size="10.00" fill="#000000">FLOAT</text>
<polygon fill="none" stroke="#000000" points="213,-255.1693 213,-275.1693 313,-275.1693 313,-255.1693 213,-255.1693"/>
<text text-anchor="start" x="224.0938" y="-261.9693" font-family="Times,serif" font-size="14.00" fill="#000000">start:</text>
<text text-anchor="start" x="252.0869" y="-261.9693" font-family="Helvetica,sans-Serif" font-style="oblique" font-size="10.00" fill="#000000">DATETIME</text>
<polygon fill="none" stroke="#000000" points="213,-235.1693 213,-255.1693 313,-255.1693 313,-235.1693 213,-235.1693"/>
<text text-anchor="start" x="226.0386" y="-241.9693" font-family="Times,serif" font-size="14.00" fill="#000000">end:</text>
<text text-anchor="start" x="250.1421" y="-241.9693" font-family="Helvetica,sans-Serif" font-style="oblique" font-size="10.00" fill="#000000">DATETIME</text>
<polygon fill="none" stroke="#000000" points="213,-215.1693 213,-235.1693 313,-235.1693 313,-215.1693 213,-215.1693"/>
<text text-anchor="start" x="229.6733" y="-221.9693" font-family="Times,serif" font-size="14.00" fill="#000000">duration:</text>
<text text-anchor="start" x="280.2183" y="-221.9693" font-family="Helvetica,sans-Serif" font-style="oblique" font-size="10.00" fill="#000000">INT</text>
<polygon fill="none" stroke="#000000" points="213,-195.1693 213,-215.1693 313,-215.1693 313,-195.1693 213,-195.1693"/>
<text text-anchor="start" x="223.7285" y="-201.9693" font-family="Times,serif" font-size="14.00" fill="#000000">repetitions:</text>
<text text-anchor="start" x="286.7148" y="-201.9693" font-family="Helvetica,sans-Serif" font-style="oblique" font-size="10.00" fill="#000000">BIT</text>
<polygon fill="none" stroke="#000000" points="213,-175.1693 213,-195.1693 313,-195.1693 313,-175.1693 213,-175.1693"/>
<text text-anchor="start" x="220.3525" y="-181.9693" font-family="Times,serif" font-size="14.00" fill="#000000">calendar_id:</text>
<text text-anchor="start" x="289.5391" y="-181.9693" font-family="Helvetica,sans-Serif" font-style="oblique" font-size="10.00" fill="#000000">INT</text>
<polygon fill="none" stroke="#000000" points="213,-155.1693 213,-175.1693 313,-175.1693 313,-155.1693 213,-155.1693"/>
<text text-anchor="start" x="225.6699" y="-161.9693" font-family="Times,serif" font-size="14.00" fill="#000000">transports:</text>
<text text-anchor="start" x="284.7734" y="-161.9693" font-family="Helvetica,sans-Serif" font-style="oblique" font-size="10.00" fill="#000000">BIT</text>
</g>
<!-- events&#45;&gt;calendars -->
<g id="edge3" class="edge">
<title>events:calendar_id&#45;&gt;calendars:id</title>
<path fill="none" stroke="#444444" stroke-dasharray="5,2" d="M313,-185.1693C383.7481,-185.1693 403.9115,-183.3524 469.9173,-183.1821"/>
<polygon fill="#444444" stroke="#444444" points="480.0045,-186.6693 470,-183.1821 479.9955,-179.6693 480.0045,-186.6693"/>
</g>
<!-- events_travels -->
<g id="node4" class="node">
<title>events_travels</title>
<polygon fill="#dddddd" stroke="transparent" points="8,-252.1693 8,-272.1693 94,-272.1693 94,-252.1693 8,-252.1693"/>
<polygon fill="none" stroke="#000000" points="8,-252.1693 8,-272.1693 94,-272.1693 94,-252.1693 8,-252.1693"/>
<text text-anchor="start" x="10.9585" y="-257.9693" font-family="Times,serif" font-size="14.00" fill="#000000">events_travels</text>
<polygon fill="none" stroke="#000000" points="8,-232.1693 8,-252.1693 94,-252.1693 94,-232.1693 8,-232.1693"/>
<text text-anchor="start" x="16.8975" y="-238.9693" font-family="Times,serif" font-size="14.00" fill="#000000">event_id:</text>
<text text-anchor="start" x="68.9941" y="-238.9693" font-family="Helvetica,sans-Serif" font-style="oblique" font-size="10.00" fill="#000000">INT</text>
<polygon fill="none" stroke="#000000" points="8,-212.1693 8,-232.1693 94,-232.1693 94,-212.1693 8,-212.1693"/>
<text text-anchor="start" x="16.1216" y="-218.9693" font-family="Times,serif" font-size="14.00" fill="#000000">travel_id:</text>
<text text-anchor="start" x="69.77" y="-218.9693" font-family="Helvetica,sans-Serif" font-style="oblique" font-size="10.00" fill="#000000">INT</text>
</g>
<!-- events_travels&#45;&gt;events -->
<g id="edge4" class="edge">
<title>events_travels:event_id&#45;&gt;events:id</title>
<path fill="none" stroke="#444444" stroke-dasharray="5,2" d="M94,-242.1693C166.4982,-242.1693 139.8021,-353.9083 203.0008,-364.3839"/>
<polygon fill="#444444" stroke="#444444" points="212.7259,-368.6586 203.0307,-364.3861 213.2741,-361.6801 212.7259,-368.6586"/>
</g>
<!-- travels -->
<g id="node6" class="node">
<title>travels</title>
<polygon fill="#dddddd" stroke="transparent" points="200,-105.1693 200,-125.1693 326,-125.1693 326,-105.1693 200,-105.1693"/>
<polygon fill="none" stroke="#000000" points="200,-105.1693 200,-125.1693 326,-125.1693 326,-105.1693 200,-105.1693"/>
<text text-anchor="start" x="244.3413" y="-110.9693" font-family="Times,serif" font-size="14.00" fill="#000000">travels</text>
<polygon fill="none" stroke="#000000" points="200,-85.1693 200,-105.1693 326,-105.1693 326,-85.1693 200,-85.1693"/>
<text text-anchor="start" x="247.5562" y="-91.9693" font-family="Times,serif" font-size="14.00" fill="#000000">id:</text>
<text text-anchor="start" x="262.3354" y="-91.9693" font-family="Helvetica,sans-Serif" font-style="oblique" font-size="10.00" fill="#000000">INT</text>
<polygon fill="none" stroke="#000000" points="200,-65.1693 200,-85.1693 326,-85.1693 326,-65.1693 200,-65.1693"/>
<text text-anchor="start" x="238.6182" y="-71.9693" font-family="Times,serif" font-size="14.00" fill="#000000">route:</text>
<text text-anchor="start" x="271.2734" y="-71.9693" font-family="Helvetica,sans-Serif" font-style="oblique" font-size="10.00" fill="#000000">INT</text>
<polygon fill="none" stroke="#000000" points="200,-45.1693 200,-65.1693 326,-65.1693 326,-45.1693 200,-45.1693"/>
<text text-anchor="start" x="240.5596" y="-51.9693" font-family="Times,serif" font-size="14.00" fill="#000000">time:</text>
<text text-anchor="start" x="269.332" y="-51.9693" font-family="Helvetica,sans-Serif" font-style="oblique" font-size="10.00" fill="#000000">INT</text>
<polygon fill="none" stroke="#000000" points="200,-25.1693 200,-45.1693 326,-45.1693 326,-25.1693 200,-25.1693"/>
<text text-anchor="start" x="202.792" y="-31.9693" font-family="Times,serif" font-size="14.00" fill="#000000">transport_mean:</text>
<text text-anchor="start" x="293.7646" y="-31.9693" font-family="Helvetica,sans-Serif" font-style="oblique" font-size="10.00" fill="#000000">ENUM</text>
<polygon fill="none" stroke="#000000" points="200,-5.1693 200,-25.1693 326,-25.1693 326,-5.1693 200,-5.1693"/>
<text text-anchor="start" x="219.501" y="-11.9693" font-family="Times,serif" font-size="14.00" fill="#000000">waypoints:</text>
<text text-anchor="start" x="280.9424" y="-11.9693" font-family="Helvetica,sans-Serif" font-style="oblique" font-size="10.00" fill="#000000">TEXT</text>
</g>
<!-- events_travels&#45;&gt;travels -->
<g id="edge5" class="edge">
<title>events_travels:travel_id&#45;&gt;travels:id</title>
<path fill="none" stroke="#444444" stroke-dasharray="5,2" d="M94,-222.1693C163.9317,-222.1693 130.2133,-107.2689 190.023,-96.0481"/>
<polygon fill="#444444" stroke="#444444" points="200.3071,-98.6558 190.0386,-96.0469 199.6929,-91.6828 200.3071,-98.6558"/>
</g>
<!-- settings -->
<g id="node5" class="node">
<title>settings</title>
<polygon fill="#dddddd" stroke="transparent" points="432,-463.1693 432,-483.1693 616,-483.1693 616,-463.1693 432,-463.1693"/>
<polygon fill="none" stroke="#000000" points="432,-463.1693 432,-483.1693 616,-483.1693 616,-463.1693 432,-463.1693"/>
<text text-anchor="start" x="502.6104" y="-468.9693" font-family="Times,serif" font-size="14.00" fill="#000000">settings</text>
<polygon fill="none" stroke="#000000" points="432,-443.1693 432,-463.1693 616,-463.1693 616,-443.1693 432,-443.1693"/>
<text text-anchor="start" x="508.5562" y="-449.9693" font-family="Times,serif" font-size="14.00" fill="#000000">id:</text>
<text text-anchor="start" x="523.3354" y="-449.9693" font-family="Helvetica,sans-Serif" font-style="oblique" font-size="10.00" fill="#000000">INT</text>
<polygon fill="none" stroke="#000000" points="432,-423.1693 432,-443.1693 616,-443.1693 616,-423.1693 432,-423.1693"/>
<text text-anchor="start" x="493.394" y="-429.9693" font-family="Times,serif" font-size="14.00" fill="#000000">user_id:</text>
<text text-anchor="start" x="538.4976" y="-429.9693" font-family="Helvetica,sans-Serif" font-style="oblique" font-size="10.00" fill="#000000">INT</text>
<polygon fill="none" stroke="#000000" points="432,-403.1693 432,-423.1693 616,-423.1693 616,-403.1693 432,-403.1693"/>
<text text-anchor="start" x="485.5112" y="-409.9693" font-family="Times,serif" font-size="14.00" fill="#000000">eco_mode:</text>
<text text-anchor="start" x="546.9321" y="-409.9693" font-family="Helvetica,sans-Serif" font-style="oblique" font-size="10.00" fill="#000000">BIT</text>
<polygon fill="none" stroke="#000000" points="432,-383.1693 432,-403.1693 616,-403.1693 616,-383.1693 432,-383.1693"/>
<text text-anchor="start" x="449.4629" y="-389.9693" font-family="Times,serif" font-size="14.00" fill="#000000">max_walking_distance:</text>
<text text-anchor="start" x="582.4287" y="-389.9693" font-family="Helvetica,sans-Serif" font-style="oblique" font-size="10.00" fill="#000000">INT</text>
<polygon fill="none" stroke="#000000" points="432,-363.1693 432,-383.1693 616,-383.1693 616,-363.1693 432,-363.1693"/>
<text text-anchor="start" x="454.125" y="-369.9693" font-family="Times,serif" font-size="14.00" fill="#000000">max_biking_distance:</text>
<text text-anchor="start" x="577.7666" y="-369.9693" font-family="Helvetica,sans-Serif" font-style="oblique" font-size="10.00" fill="#000000">INT</text>
<polygon fill="none" stroke="#000000" points="432,-343.1693 432,-363.1693 616,-363.1693 616,-343.1693 432,-343.1693"/>
<text text-anchor="start" x="434.6841" y="-349.9693" font-family="Times,serif" font-size="14.00" fill="#000000">start_public_transportation:</text>
<text text-anchor="start" x="589.4292" y="-349.9693" font-family="Helvetica,sans-Serif" font-style="oblique" font-size="10.00" fill="#000000">TIME</text>
<polygon fill="none" stroke="#000000" points="432,-323.1693 432,-343.1693 616,-343.1693 616,-323.1693 432,-323.1693"/>
<text text-anchor="start" x="436.6289" y="-329.9693" font-family="Times,serif" font-size="14.00" fill="#000000">end_public_transportation:</text>
<text text-anchor="start" x="587.4844" y="-329.9693" font-family="Helvetica,sans-Serif" font-style="oblique" font-size="10.00" fill="#000000">TIME</text>
<polygon fill="none" stroke="#000000" points="432,-303.1693 432,-323.1693 616,-323.1693 616,-303.1693 432,-303.1693"/>
<text text-anchor="start" x="473.4595" y="-309.9693" font-family="Times,serif" font-size="14.00" fill="#000000">enjoy_enabled:</text>
<text text-anchor="start" x="558.9839" y="-309.9693" font-family="Helvetica,sans-Serif" font-style="oblique" font-size="10.00" fill="#000000">BIT</text>
<polygon fill="none" stroke="#000000" points="432,-283.1693 432,-303.1693 616,-303.1693 616,-283.1693 432,-283.1693"/>
<text text-anchor="start" x="469.9663" y="-289.9693" font-family="Times,serif" font-size="14.00" fill="#000000">car2go_enabled:</text>
<text text-anchor="start" x="562.4771" y="-289.9693" font-family="Helvetica,sans-Serif" font-style="oblique" font-size="10.00" fill="#000000">BIT</text>
<polygon fill="none" stroke="#000000" points="432,-263.1693 432,-283.1693 616,-283.1693 616,-263.1693 432,-263.1693"/>
<text text-anchor="start" x="476.5732" y="-269.9693" font-family="Times,serif" font-size="14.00" fill="#000000">uber_enabled:</text>
<text text-anchor="start" x="555.8701" y="-269.9693" font-family="Helvetica,sans-Serif" font-style="oblique" font-size="10.00" fill="#000000">BIT</text>
<polygon fill="none" stroke="#000000" points="432,-243.1693 432,-263.1693 616,-263.1693 616,-243.1693 432,-243.1693"/>
<text text-anchor="start" x="468.0146" y="-249.9693" font-family="Times,serif" font-size="14.00" fill="#000000">mobike_enabled:</text>
<text text-anchor="start" x="564.4287" y="-249.9693" font-family="Helvetica,sans-Serif" font-style="oblique" font-size="10.00" fill="#000000">BIT</text>
</g>
<!-- settings&#45;&gt;users -->
<g id="edge6" class="edge">
<title>settings:user_id&#45;&gt;users:id</title>
<path fill="none" stroke="#444444" stroke-dasharray="5,2" d="M616,-433.1693C659.4325,-433.1693 672.8315,-434.0192 711.5712,-434.152"/>
<polygon fill="#444444" stroke="#444444" points="721.9941,-437.6693 712,-434.1526 722.0059,-430.6693 721.9941,-437.6693"/>
</g>
</g>
</svg>
