<?xml version="1.0" encoding="UTF-8" standalone="no"?>
<!DOCTYPE svg PUBLIC "-//W3C//DTD SVG 1.1//EN"
 "http://www.w3.org/Graphics/SVG/1.1/DTD/svg11.dtd">
<!-- Generated by graphviz version 2.40.1 (20161225.0304)
 -->
<!-- Title: Database Structure Pages: 1 -->
<svg width="1111pt" height="802pt"
 viewBox="0.00 0.00 1110.86 802.00" xmlns="http://www.w3.org/2000/svg" xmlns:xlink="http://www.w3.org/1999/xlink">
<g id="graph0" class="graph" transform="scale(1 1) rotate(0) translate(4 798)">
<title>Database Structure</title>
<polygon fill="#ffffff" stroke="transparent" points="-4,4 -4,-798 1106.8571,-798 1106.8571,4 -4,4"/>
<text text-anchor="middle" x="551.4286" y="-778.8" font-family="Helvetica,sans-Serif" font-size="14.00" fill="#000000">ER Diagram: travlendar+</text>
<!-- calendars -->
<g id="node1" class="node">
<title>calendars</title>
<polygon fill="#dddddd" stroke="transparent" points="589.8571,-190 589.8571,-210 677.8571,-210 677.8571,-190 589.8571,-190"/>
<polygon fill="none" stroke="#000000" points="589.8571,-190 589.8571,-210 677.8571,-210 677.8571,-190 589.8571,-190"/>
<text text-anchor="start" x="607.4294" y="-195.8" font-family="Times,serif" font-size="14.00" fill="#000000">calendars</text>
<polygon fill="none" stroke="#000000" points="589.8571,-170 589.8571,-190 677.8571,-190 677.8571,-170 589.8571,-170"/>
<text text-anchor="start" x="618.4133" y="-176.8" font-family="Times,serif" font-size="14.00" fill="#000000">id:</text>
<text text-anchor="start" x="633.1926" y="-176.8" font-family="Helvetica,sans-Serif" font-style="oblique" font-size="10.00" fill="#000000">INT</text>
<polygon fill="none" stroke="#000000" points="589.8571,-150 589.8571,-170 677.8571,-170 677.8571,-150 589.8571,-150"/>
<text text-anchor="start" x="603.2512" y="-156.8" font-family="Times,serif" font-size="14.00" fill="#000000">user_id:</text>
<text text-anchor="start" x="648.3547" y="-156.8" font-family="Helvetica,sans-Serif" font-style="oblique" font-size="10.00" fill="#000000">INT</text>
<polygon fill="none" stroke="#000000" points="589.8571,-130 589.8571,-150 677.8571,-150 677.8571,-130 589.8571,-130"/>
<text text-anchor="start" x="592.674" y="-136.8" font-family="Times,serif" font-size="14.00" fill="#000000">name:</text>
<text text-anchor="start" x="626.8811" y="-136.8" font-family="Helvetica,sans-Serif" font-style="oblique" font-size="10.00" fill="#000000">VARCHAR</text>
<polygon fill="none" stroke="#000000" points="589.8571,-110 589.8571,-130 677.8571,-130 677.8571,-110 589.8571,-110"/>
<text text-anchor="start" x="593.4499" y="-116.8" font-family="Times,serif" font-size="14.00" fill="#000000">color:</text>
<text text-anchor="start" x="626.1052" y="-116.8" font-family="Helvetica,sans-Serif" font-style="oblique" font-size="10.00" fill="#000000">VARCHAR</text>
</g>
<!-- users -->
<g id="node8" class="node">
<title>users</title>
<polygon fill="#dddddd" stroke="transparent" points="891.8571,-439 891.8571,-459 1073.8571,-459 1073.8571,-439 891.8571,-439"/>
<polygon fill="none" stroke="#000000" points="891.8571,-439 891.8571,-459 1073.8571,-459 1073.8571,-439 891.8571,-439"/>
<text text-anchor="start" x="968.4709" y="-444.8" font-family="Times,serif" font-size="14.00" fill="#000000">users</text>
<polygon fill="none" stroke="#000000" points="891.8571,-419 891.8571,-439 1073.8571,-439 1073.8571,-419 891.8571,-419"/>
<text text-anchor="start" x="967.4133" y="-425.8" font-family="Times,serif" font-size="14.00" fill="#000000">id:</text>
<text text-anchor="start" x="982.1926" y="-425.8" font-family="Helvetica,sans-Serif" font-style="oblique" font-size="10.00" fill="#000000">INT</text>
<polygon fill="none" stroke="#000000" points="891.8571,-399 891.8571,-419 1073.8571,-419 1073.8571,-399 891.8571,-399"/>
<text text-anchor="start" x="926.1189" y="-405.8" font-family="Times,serif" font-size="14.00" fill="#000000">user_token:</text>
<text text-anchor="start" x="991.4362" y="-405.8" font-family="Helvetica,sans-Serif" font-style="oblique" font-size="10.00" fill="#000000">VARCHAR</text>
<polygon fill="none" stroke="#000000" points="891.8571,-379 891.8571,-399 1073.8571,-399 1073.8571,-379 891.8571,-379"/>
<text text-anchor="start" x="896.3366" y="-385.8" font-family="Times,serif" font-size="14.00" fill="#000000">last_known_position_lat:</text>
<text text-anchor="start" x="1037.8884" y="-385.8" font-family="Helvetica,sans-Serif" font-style="oblique" font-size="10.00" fill="#000000">FLOAT</text>
<polygon fill="none" stroke="#000000" points="891.8571,-359 891.8571,-379 1073.8571,-379 1073.8571,-359 891.8571,-359"/>
<text text-anchor="start" x="894.3884" y="-365.8" font-family="Times,serif" font-size="14.00" fill="#000000">last_known_position_lng:</text>
<text text-anchor="start" x="1039.8366" y="-365.8" font-family="Helvetica,sans-Serif" font-style="oblique" font-size="10.00" fill="#000000">FLOAT</text>
<polygon fill="none" stroke="#000000" points="891.8571,-339 891.8571,-359 1073.8571,-359 1073.8571,-339 891.8571,-339"/>
<text text-anchor="start" x="925.2922" y="-345.8" font-family="Times,serif" font-size="14.00" fill="#000000">updated_at:</text>
<text text-anchor="start" x="990.6027" y="-345.8" font-family="Helvetica,sans-Serif" font-style="oblique" font-size="10.00" fill="#000000">DATETIME</text>
</g>
<!-- calendars&#45;&gt;users -->
<g id="edge1" class="edge">
<title>calendars:user_id&#45;&gt;users:id</title>
<path fill="none" stroke="#444444" stroke-dasharray="5,2" d="M677.8571,-160C827.0497,-160 743.241,-416.5384 881.5116,-428.5636"/>
<polygon fill="#444444" stroke="#444444" points="891.7096,-432.4969 881.866,-428.5785 892.0047,-425.5031 891.7096,-432.4969"/>
</g>
<!-- devices -->
<g id="node2" class="node">
<title>devices</title>
<polygon fill="#dddddd" stroke="transparent" points="568.8571,-748 568.8571,-768 699.8571,-768 699.8571,-748 568.8571,-748"/>
<polygon fill="none" stroke="#000000" points="568.8571,-748 568.8571,-768 699.8571,-768 699.8571,-748 568.8571,-748"/>
<text text-anchor="start" x="613.3674" y="-753.8" font-family="Times,serif" font-size="14.00" fill="#000000">devices</text>
<polygon fill="none" stroke="#000000" points="568.8571,-728 568.8571,-748 699.8571,-748 699.8571,-728 568.8571,-728"/>
<text text-anchor="start" x="618.9133" y="-734.8" font-family="Times,serif" font-size="14.00" fill="#000000">id:</text>
<text text-anchor="start" x="633.6926" y="-734.8" font-family="Helvetica,sans-Serif" font-style="oblique" font-size="10.00" fill="#000000">INT</text>
<polygon fill="none" stroke="#000000" points="568.8571,-708 568.8571,-728 699.8571,-728 699.8571,-708 568.8571,-708"/>
<text text-anchor="start" x="603.7512" y="-714.8" font-family="Times,serif" font-size="14.00" fill="#000000">user_id:</text>
<text text-anchor="start" x="648.8547" y="-714.8" font-family="Helvetica,sans-Serif" font-style="oblique" font-size="10.00" fill="#000000">INT</text>
<polygon fill="none" stroke="#000000" points="568.8571,-688 568.8571,-708 699.8571,-708 699.8571,-688 568.8571,-688"/>
<text text-anchor="start" x="571.405" y="-694.8" font-family="Times,serif" font-size="14.00" fill="#000000">access_token:</text>
<text text-anchor="start" x="649.1501" y="-694.8" font-family="Helvetica,sans-Serif" font-style="oblique" font-size="10.00" fill="#000000">VARCHAR</text>
<polygon fill="none" stroke="#000000" points="568.8571,-668 568.8571,-688 699.8571,-688 699.8571,-668 568.8571,-668"/>
<text text-anchor="start" x="587.3581" y="-674.8" font-family="Times,serif" font-size="14.00" fill="#000000">push_token:</text>
<text text-anchor="start" x="655.7995" y="-674.8" font-family="Helvetica,sans-Serif" font-style="oblique" font-size="10.00" fill="#000000">TEXT</text>
<polygon fill="none" stroke="#000000" points="568.8571,-648 568.8571,-668 699.8571,-668 699.8571,-648 568.8571,-648"/>
<text text-anchor="start" x="574.5153" y="-654.8" font-family="Times,serif" font-size="14.00" fill="#000000">device_type:</text>
<text text-anchor="start" x="646.0398" y="-654.8" font-family="Helvetica,sans-Serif" font-style="oblique" font-size="10.00" fill="#000000">VARCHAR</text>
</g>
<!-- devices&#45;&gt;users -->
<g id="edge2" class="edge">
<title>devices:user_id&#45;&gt;users:id</title>
<path fill="none" stroke="#444444" stroke-dasharray="5,2" d="M699.8571,-718C850.4498,-718 742.9585,-442.3881 881.4535,-429.4688"/>
<polygon fill="#444444" stroke="#444444" points="892.0147,-432.4965 881.8673,-429.4503 891.6996,-425.5035 892.0147,-432.4965"/>
</g>
<!-- events -->
<g id="node3" class="node">
<title>events</title>
<polygon fill="#dddddd" stroke="transparent" points="267.8571,-370 267.8571,-390 367.8571,-390 367.8571,-370 267.8571,-370"/>
<polygon fill="none" stroke="#000000" points="267.8571,-370 267.8571,-390 367.8571,-390 367.8571,-370 267.8571,-370"/>
<text text-anchor="start" x="299.9743" y="-375.8" font-family="Times,serif" font-size="14.00" fill="#000000">events</text>
<polygon fill="none" stroke="#000000" points="267.8571,-350 267.8571,-370 367.8571,-370 367.8571,-350 267.8571,-350"/>
<text text-anchor="start" x="302.4133" y="-356.8" font-family="Times,serif" font-size="14.00" fill="#000000">id:</text>
<text text-anchor="start" x="317.1926" y="-356.8" font-family="Helvetica,sans-Serif" font-style="oblique" font-size="10.00" fill="#000000">INT</text>
<polygon fill="none" stroke="#000000" points="267.8571,-330 267.8571,-350 367.8571,-350 367.8571,-330 267.8571,-330"/>
<text text-anchor="start" x="280.9465" y="-336.8" font-family="Times,serif" font-size="14.00" fill="#000000">title:</text>
<text text-anchor="start" x="306.6086" y="-336.8" font-family="Helvetica,sans-Serif" font-style="oblique" font-size="10.00" fill="#000000">VARCHAR</text>
<polygon fill="none" stroke="#000000" points="267.8571,-310 267.8571,-330 367.8571,-330 367.8571,-310 267.8571,-310"/>
<text text-anchor="start" x="270.8396" y="-316.8" font-family="Times,serif" font-size="14.00" fill="#000000">address:</text>
<text text-anchor="start" x="316.7155" y="-316.8" font-family="Helvetica,sans-Serif" font-style="oblique" font-size="10.00" fill="#000000">VARCHAR</text>
<polygon fill="none" stroke="#000000" points="267.8571,-290 267.8571,-310 367.8571,-310 367.8571,-290 267.8571,-290"/>
<text text-anchor="start" x="293.1711" y="-296.8" font-family="Times,serif" font-size="14.00" fill="#000000">lat:</text>
<text text-anchor="start" x="311.0539" y="-296.8" font-family="Helvetica,sans-Serif" font-style="oblique" font-size="10.00" fill="#000000">FLOAT</text>
<polygon fill="none" stroke="#000000" points="267.8571,-270 267.8571,-290 367.8571,-290 367.8571,-270 267.8571,-270"/>
<text text-anchor="start" x="291.2229" y="-276.8" font-family="Times,serif" font-size="14.00" fill="#000000">lng:</text>
<text text-anchor="start" x="313.0022" y="-276.8" font-family="Helvetica,sans-Serif" font-style="oblique" font-size="10.00" fill="#000000">FLOAT</text>
<polygon fill="none" stroke="#000000" points="267.8571,-250 267.8571,-270 367.8571,-270 367.8571,-250 267.8571,-250"/>
<text text-anchor="start" x="278.9509" y="-256.8" font-family="Times,serif" font-size="14.00" fill="#000000">start:</text>
<text text-anchor="start" x="306.9441" y="-256.8" font-family="Helvetica,sans-Serif" font-style="oblique" font-size="10.00" fill="#000000">DATETIME</text>
<polygon fill="none" stroke="#000000" points="267.8571,-230 267.8571,-250 367.8571,-250 367.8571,-230 267.8571,-230"/>
<text text-anchor="start" x="280.8957" y="-236.8" font-family="Times,serif" font-size="14.00" fill="#000000">end:</text>
<text text-anchor="start" x="304.9992" y="-236.8" font-family="Helvetica,sans-Serif" font-style="oblique" font-size="10.00" fill="#000000">DATETIME</text>
<polygon fill="none" stroke="#000000" points="267.8571,-210 267.8571,-230 367.8571,-230 367.8571,-210 267.8571,-210"/>
<text text-anchor="start" x="284.5305" y="-216.8" font-family="Times,serif" font-size="14.00" fill="#000000">duration:</text>
<text text-anchor="start" x="335.0754" y="-216.8" font-family="Helvetica,sans-Serif" font-style="oblique" font-size="10.00" fill="#000000">INT</text>
<polygon fill="none" stroke="#000000" points="267.8571,-190 267.8571,-210 367.8571,-210 367.8571,-190 267.8571,-190"/>
<text text-anchor="start" x="278.5857" y="-196.8" font-family="Times,serif" font-size="14.00" fill="#000000">repetitions:</text>
<text text-anchor="start" x="341.572" y="-196.8" font-family="Helvetica,sans-Serif" font-style="oblique" font-size="10.00" fill="#000000">BIT</text>
<polygon fill="none" stroke="#000000" points="267.8571,-170 267.8571,-190 367.8571,-190 367.8571,-170 267.8571,-170"/>
<text text-anchor="start" x="275.2097" y="-176.8" font-family="Times,serif" font-size="14.00" fill="#000000">calendar_id:</text>
<text text-anchor="start" x="344.3962" y="-176.8" font-family="Helvetica,sans-Serif" font-style="oblique" font-size="10.00" fill="#000000">INT</text>
<polygon fill="none" stroke="#000000" points="267.8571,-150 267.8571,-170 367.8571,-170 367.8571,-150 267.8571,-150"/>
<text text-anchor="start" x="280.5271" y="-156.8" font-family="Times,serif" font-size="14.00" fill="#000000">transports:</text>
<text text-anchor="start" x="339.6306" y="-156.8" font-family="Helvetica,sans-Serif" font-style="oblique" font-size="10.00" fill="#000000">BIT</text>
</g>
<!-- events&#45;&gt;calendars -->
<g id="edge3" class="edge">
<title>events:calendar_id&#45;&gt;calendars:id</title>
<path fill="none" stroke="#444444" stroke-dasharray="5,2" d="M367.8571,-180C463.0551,-180 489.3646,-180 579.7188,-180"/>
<polygon fill="#444444" stroke="#444444" points="589.8572,-183.5 579.8571,-180.0001 589.8571,-176.5 589.8572,-183.5"/>
</g>
<!-- events_travels -->
<g id="node4" class="node">
<title>events_travels</title>
<polygon fill="#dddddd" stroke="transparent" points="18.8571,-247 18.8571,-267 104.8571,-267 104.8571,-247 18.8571,-247"/>
<polygon fill="none" stroke="#000000" points="18.8571,-247 18.8571,-267 104.8571,-267 104.8571,-247 18.8571,-247"/>
<text text-anchor="start" x="21.8156" y="-252.8" font-family="Times,serif" font-size="14.00" fill="#000000">events_travels</text>
<polygon fill="none" stroke="#000000" points="18.8571,-227 18.8571,-247 104.8571,-247 104.8571,-227 18.8571,-227"/>
<text text-anchor="start" x="27.7546" y="-233.8" font-family="Times,serif" font-size="14.00" fill="#000000">event_id:</text>
<text text-anchor="start" x="79.8513" y="-233.8" font-family="Helvetica,sans-Serif" font-style="oblique" font-size="10.00" fill="#000000">INT</text>
<polygon fill="none" stroke="#000000" points="18.8571,-207 18.8571,-227 104.8571,-227 104.8571,-207 18.8571,-207"/>
<text text-anchor="start" x="26.9787" y="-213.8" font-family="Times,serif" font-size="14.00" fill="#000000">travel_id:</text>
<text text-anchor="start" x="80.6272" y="-213.8" font-family="Helvetica,sans-Serif" font-style="oblique" font-size="10.00" fill="#000000">INT</text>
</g>
<!-- events_travels&#45;&gt;events -->
<g id="edge4" class="edge">
<title>events_travels:event_id&#45;&gt;events:id</title>
<path fill="none" stroke="#444444" stroke-dasharray="5,2" d="M104.8571,-237C192.0679,-237 178.3807,-350.5783 257.7088,-359.4516"/>
<polygon fill="#444444" stroke="#444444" points="267.6683,-363.4949 257.8717,-359.4603 268.046,-356.5051 267.6683,-363.4949"/>
</g>
<!-- travels -->
<g id="node7" class="node">
<title>travels</title>
<polygon fill="#dddddd" stroke="transparent" points="254.8571,-104 254.8571,-124 380.8571,-124 380.8571,-104 254.8571,-104"/>
<polygon fill="none" stroke="#000000" points="254.8571,-104 254.8571,-124 380.8571,-124 380.8571,-104 254.8571,-104"/>
<text text-anchor="start" x="299.1985" y="-109.8" font-family="Times,serif" font-size="14.00" fill="#000000">travels</text>
<polygon fill="none" stroke="#000000" points="254.8571,-84 254.8571,-104 380.8571,-104 380.8571,-84 254.8571,-84"/>
<text text-anchor="start" x="302.4133" y="-90.8" font-family="Times,serif" font-size="14.00" fill="#000000">id:</text>
<text text-anchor="start" x="317.1926" y="-90.8" font-family="Helvetica,sans-Serif" font-style="oblique" font-size="10.00" fill="#000000">INT</text>
<polygon fill="none" stroke="#000000" points="254.8571,-64 254.8571,-84 380.8571,-84 380.8571,-64 254.8571,-64"/>
<text text-anchor="start" x="293.4753" y="-70.8" font-family="Times,serif" font-size="14.00" fill="#000000">route:</text>
<text text-anchor="start" x="326.1306" y="-70.8" font-family="Helvetica,sans-Serif" font-style="oblique" font-size="10.00" fill="#000000">INT</text>
<polygon fill="none" stroke="#000000" points="254.8571,-44 254.8571,-64 380.8571,-64 380.8571,-44 254.8571,-44"/>
<text text-anchor="start" x="295.4167" y="-50.8" font-family="Times,serif" font-size="14.00" fill="#000000">time:</text>
<text text-anchor="start" x="324.1892" y="-50.8" font-family="Helvetica,sans-Serif" font-style="oblique" font-size="10.00" fill="#000000">INT</text>
<polygon fill="none" stroke="#000000" points="254.8571,-24 254.8571,-44 380.8571,-44 380.8571,-24 254.8571,-24"/>
<text text-anchor="start" x="257.6491" y="-30.8" font-family="Times,serif" font-size="14.00" fill="#000000">transport_mean:</text>
<text text-anchor="start" x="348.6218" y="-30.8" font-family="Helvetica,sans-Serif" font-style="oblique" font-size="10.00" fill="#000000">ENUM</text>
<polygon fill="none" stroke="#000000" points="254.8571,-4 254.8571,-24 380.8571,-24 380.8571,-4 254.8571,-4"/>
<text text-anchor="start" x="274.3581" y="-10.8" font-family="Times,serif" font-size="14.00" fill="#000000">waypoints:</text>
<text text-anchor="start" x="335.7995" y="-10.8" font-family="Helvetica,sans-Serif" font-style="oblique" font-size="10.00" fill="#000000">TEXT</text>
</g>
<!-- events_travels&#45;&gt;travels -->
<g id="edge5" class="edge">
<title>events_travels:travel_id&#45;&gt;travels:id</title>
<path fill="none" stroke="#444444" stroke-dasharray="5,2" d="M104.8571,-217C187.5352,-217 170.3,-103.8829 244.7821,-94.6038"/>
<polygon fill="#444444" stroke="#444444" points="255.0666,-97.4937 244.8751,-94.5983 254.6477,-90.5063 255.0666,-97.4937"/>
</g>
<!-- settings -->
<g id="node5" class="node">
<title>settings</title>
<polygon fill="#dddddd" stroke="transparent" points="541.8571,-602 541.8571,-622 725.8571,-622 725.8571,-602 541.8571,-602"/>
<polygon fill="none" stroke="#000000" points="541.8571,-602 541.8571,-622 725.8571,-622 725.8571,-602 541.8571,-602"/>
<text text-anchor="start" x="612.4675" y="-607.8" font-family="Times,serif" font-size="14.00" fill="#000000">settings</text>
<polygon fill="none" stroke="#000000" points="541.8571,-582 541.8571,-602 725.8571,-602 725.8571,-582 541.8571,-582"/>
<text text-anchor="start" x="618.4133" y="-588.8" font-family="Times,serif" font-size="14.00" fill="#000000">id:</text>
<text text-anchor="start" x="633.1926" y="-588.8" font-family="Helvetica,sans-Serif" font-style="oblique" font-size="10.00" fill="#000000">INT</text>
<polygon fill="none" stroke="#000000" points="541.8571,-562 541.8571,-582 725.8571,-582 725.8571,-562 541.8571,-562"/>
<text text-anchor="start" x="603.2512" y="-568.8" font-family="Times,serif" font-size="14.00" fill="#000000">user_id:</text>
<text text-anchor="start" x="648.3547" y="-568.8" font-family="Helvetica,sans-Serif" font-style="oblique" font-size="10.00" fill="#000000">INT</text>
<polygon fill="none" stroke="#000000" points="541.8571,-542 541.8571,-562 725.8571,-562 725.8571,-542 541.8571,-542"/>
<text text-anchor="start" x="595.3684" y="-548.8" font-family="Times,serif" font-size="14.00" fill="#000000">eco_mode:</text>
<text text-anchor="start" x="656.7893" y="-548.8" font-family="Helvetica,sans-Serif" font-style="oblique" font-size="10.00" fill="#000000">BIT</text>
<polygon fill="none" stroke="#000000" points="541.8571,-522 541.8571,-542 725.8571,-542 725.8571,-522 541.8571,-522"/>
<text text-anchor="start" x="559.32" y="-528.8" font-family="Times,serif" font-size="14.00" fill="#000000">max_walking_distance:</text>
<text text-anchor="start" x="692.2859" y="-528.8" font-family="Helvetica,sans-Serif" font-style="oblique" font-size="10.00" fill="#000000">INT</text>
<polygon fill="none" stroke="#000000" points="541.8571,-502 541.8571,-522 725.8571,-522 725.8571,-502 541.8571,-502"/>
<text text-anchor="start" x="563.9821" y="-508.8" font-family="Times,serif" font-size="14.00" fill="#000000">max_biking_distance:</text>
<text text-anchor="start" x="687.6237" y="-508.8" font-family="Helvetica,sans-Serif" font-style="oblique" font-size="10.00" fill="#000000">INT</text>
<polygon fill="none" stroke="#000000" points="541.8571,-482 541.8571,-502 725.8571,-502 725.8571,-482 541.8571,-482"/>
<text text-anchor="start" x="544.5412" y="-488.8" font-family="Times,serif" font-size="14.00" fill="#000000">start_public_transportation:</text>
<text text-anchor="start" x="699.2863" y="-488.8" font-family="Helvetica,sans-Serif" font-style="oblique" font-size="10.00" fill="#000000">TIME</text>
<polygon fill="none" stroke="#000000" points="541.8571,-462 541.8571,-482 725.8571,-482 725.8571,-462 541.8571,-462"/>
<text text-anchor="start" x="546.486" y="-468.8" font-family="Times,serif" font-size="14.00" fill="#000000">end_public_transportation:</text>
<text text-anchor="start" x="697.3415" y="-468.8" font-family="Helvetica,sans-Serif" font-style="oblique" font-size="10.00" fill="#000000">TIME</text>
<polygon fill="none" stroke="#000000" points="541.8571,-442 541.8571,-462 725.8571,-462 725.8571,-442 541.8571,-442"/>
<text text-anchor="start" x="583.3166" y="-448.8" font-family="Times,serif" font-size="14.00" fill="#000000">enjoy_enabled:</text>
<text text-anchor="start" x="668.841" y="-448.8" font-family="Helvetica,sans-Serif" font-style="oblique" font-size="10.00" fill="#000000">BIT</text>
<polygon fill="none" stroke="#000000" points="541.8571,-422 541.8571,-442 725.8571,-442 725.8571,-422 541.8571,-422"/>
<text text-anchor="start" x="579.8235" y="-428.8" font-family="Times,serif" font-size="14.00" fill="#000000">car2go_enabled:</text>
<text text-anchor="start" x="672.3342" y="-428.8" font-family="Helvetica,sans-Serif" font-style="oblique" font-size="10.00" fill="#000000">BIT</text>
<polygon fill="none" stroke="#000000" points="541.8571,-402 541.8571,-422 725.8571,-422 725.8571,-402 541.8571,-402"/>
<text text-anchor="start" x="586.4304" y="-408.8" font-family="Times,serif" font-size="14.00" fill="#000000">uber_enabled:</text>
<text text-anchor="start" x="665.7273" y="-408.8" font-family="Helvetica,sans-Serif" font-style="oblique" font-size="10.00" fill="#000000">BIT</text>
<polygon fill="none" stroke="#000000" points="541.8571,-382 541.8571,-402 725.8571,-402 725.8571,-382 541.8571,-382"/>
<text text-anchor="start" x="577.8718" y="-388.8" font-family="Times,serif" font-size="14.00" fill="#000000">mobike_enabled:</text>
<text text-anchor="start" x="674.2859" y="-388.8" font-family="Helvetica,sans-Serif" font-style="oblique" font-size="10.00" fill="#000000">BIT</text>
</g>
<!-- settings&#45;&gt;users -->
<g id="edge6" class="edge">
<title>settings:user_id&#45;&gt;users:id</title>
<path fill="none" stroke="#444444" stroke-dasharray="5,2" d="M725.8571,-572C819.7166,-572 796.3926,-439.1473 881.7837,-429.5466"/>
<polygon fill="#444444" stroke="#444444" points="892.0468,-432.4949 881.8718,-429.5419 891.6675,-425.5051 892.0468,-432.4949"/>
</g>
<!-- tickets -->
<g id="node6" class="node">
<title>tickets</title>
<polygon fill="#dddddd" stroke="transparent" points="590.8571,-336 590.8571,-356 676.8571,-356 676.8571,-336 590.8571,-336"/>
<polygon fill="none" stroke="#000000" points="590.8571,-336 590.8571,-356 676.8571,-356 676.8571,-336 590.8571,-336"/>
<text text-anchor="start" x="615.5847" y="-341.8" font-family="Times,serif" font-size="14.00" fill="#000000">tickets</text>
<polygon fill="none" stroke="#000000" points="590.8571,-316 590.8571,-336 676.8571,-336 676.8571,-316 590.8571,-316"/>
<text text-anchor="start" x="618.4133" y="-322.8" font-family="Times,serif" font-size="14.00" fill="#000000">id:</text>
<text text-anchor="start" x="633.1926" y="-322.8" font-family="Helvetica,sans-Serif" font-style="oblique" font-size="10.00" fill="#000000">INT</text>
<polygon fill="none" stroke="#000000" points="590.8571,-296 590.8571,-316 676.8571,-316 676.8571,-296 590.8571,-296"/>
<text text-anchor="start" x="593.4768" y="-302.8" font-family="Times,serif" font-size="14.00" fill="#000000">provider:</text>
<text text-anchor="start" x="644.7942" y="-302.8" font-family="Helvetica,sans-Serif" font-style="oblique" font-size="10.00" fill="#000000">ENUM</text>
<polygon fill="none" stroke="#000000" points="590.8571,-276 590.8571,-296 676.8571,-296 676.8571,-276 590.8571,-276"/>
<text text-anchor="start" x="603.2512" y="-282.8" font-family="Times,serif" font-size="14.00" fill="#000000">user_id:</text>
<text text-anchor="start" x="648.3547" y="-282.8" font-family="Helvetica,sans-Serif" font-style="oblique" font-size="10.00" fill="#000000">INT</text>
<polygon fill="none" stroke="#000000" points="590.8571,-256 590.8571,-276 676.8571,-276 676.8571,-256 590.8571,-256"/>
<text text-anchor="start" x="604.8918" y="-262.8" font-family="Times,serif" font-size="14.00" fill="#000000">cost:</text>
<text text-anchor="start" x="631.3332" y="-262.8" font-family="Helvetica,sans-Serif" font-style="oblique" font-size="10.00" fill="#000000">FLOAT</text>
<polygon fill="none" stroke="#000000" points="590.8571,-236 590.8571,-256 676.8571,-256 676.8571,-236 590.8571,-236"/>
<text text-anchor="start" x="598.5017" y="-242.8" font-family="Times,serif" font-size="14.00" fill="#000000">pnr:</text>
<text text-anchor="start" x="621.0534" y="-242.8" font-family="Helvetica,sans-Serif" font-style="oblique" font-size="10.00" fill="#000000">VARCHAR</text>
</g>
<!-- tickets&#45;&gt;users -->
<g id="edge7" class="edge">
<title>tickets:user_id&#45;&gt;users:id</title>
<path fill="none" stroke="#444444" stroke-dasharray="5,2" d="M676.8571,-286C788.1443,-286 777.8566,-420.4729 881.7828,-428.6148"/>
<polygon fill="#444444" stroke="#444444" points="891.7234,-432.4974 881.8644,-428.6178 891.9909,-425.5026 891.7234,-432.4974"/>
</g>
</g>
</svg>
