<?xml version="1.0" encoding="UTF-8" standalone="no"?>
<!DOCTYPE svg PUBLIC "-//W3C//DTD SVG 1.1//EN"
 "http://www.w3.org/Graphics/SVG/1.1/DTD/svg11.dtd">
<!-- Generated by graphviz version 2.40.1 (20161225.0304)
 -->
<!-- Title: Database Structure Pages: 1 -->
<svg width="1031pt" height="746pt"
 viewBox="0.00 0.00 1031.00 746.10" xmlns="http://www.w3.org/2000/svg" xmlns:xlink="http://www.w3.org/1999/xlink">
<g id="graph0" class="graph" transform="scale(1 1) rotate(0) translate(4 742.1)">
<title>Database Structure</title>
<polygon fill="#ffffff" stroke="transparent" points="-4,4 -4,-742.1 1027,-742.1 1027,4 -4,4"/>
<text text-anchor="middle" x="511.5" y="-722.9" font-family="Helvetica,sans-Serif" font-size="14.00" fill="#000000">ER Diagram: travlendar+</text>
<!-- calendars -->
<g id="node1" class="node">
<title>calendars</title>
<polygon fill="#dddddd" stroke="transparent" points="591,-245.045 591,-265.045 679,-265.045 679,-245.045 591,-245.045"/>
<polygon fill="none" stroke="#000000" points="591,-245.045 591,-265.045 679,-265.045 679,-245.045 591,-245.045"/>
<text text-anchor="start" x="608.5723" y="-250.845" font-family="Times,serif" font-size="14.00" fill="#000000">calendars</text>
<polygon fill="none" stroke="#000000" points="591,-225.045 591,-245.045 679,-245.045 679,-225.045 591,-225.045"/>
<text text-anchor="start" x="619.5562" y="-231.845" font-family="Times,serif" font-size="14.00" fill="#000000">id:</text>
<text text-anchor="start" x="634.3354" y="-231.845" font-family="Helvetica,sans-Serif" font-style="oblique" font-size="10.00" fill="#000000">INT</text>
<polygon fill="none" stroke="#000000" points="591,-205.045 591,-225.045 679,-225.045 679,-205.045 591,-205.045"/>
<text text-anchor="start" x="604.394" y="-211.845" font-family="Times,serif" font-size="14.00" fill="#000000">user_id:</text>
<text text-anchor="start" x="649.4976" y="-211.845" font-family="Helvetica,sans-Serif" font-style="oblique" font-size="10.00" fill="#000000">INT</text>
<polygon fill="none" stroke="#000000" points="591,-185.045 591,-205.045 679,-205.045 679,-185.045 591,-185.045"/>
<text text-anchor="start" x="593.8169" y="-191.845" font-family="Times,serif" font-size="14.00" fill="#000000">name:</text>
<text text-anchor="start" x="628.0239" y="-191.845" font-family="Helvetica,sans-Serif" font-style="oblique" font-size="10.00" fill="#000000">VARCHAR</text>
<polygon fill="none" stroke="#000000" points="591,-165.045 591,-185.045 679,-185.045 679,-165.045 591,-165.045"/>
<text text-anchor="start" x="594.5928" y="-171.845" font-family="Times,serif" font-size="14.00" fill="#000000">color:</text>
<text text-anchor="start" x="627.248" y="-171.845" font-family="Helvetica,sans-Serif" font-style="oblique" font-size="10.00" fill="#000000">VARCHAR</text>
</g>
<!-- users -->
<g id="node8" class="node">
<title>users</title>
<polygon fill="#dddddd" stroke="transparent" points="833,-509.045 833,-529.045 1015,-529.045 1015,-509.045 833,-509.045"/>
<polygon fill="none" stroke="#000000" points="833,-509.045 833,-529.045 1015,-529.045 1015,-509.045 833,-509.045"/>
<text text-anchor="start" x="909.6138" y="-514.845" font-family="Times,serif" font-size="14.00" fill="#000000">users</text>
<polygon fill="none" stroke="#000000" points="833,-489.045 833,-509.045 1015,-509.045 1015,-489.045 833,-489.045"/>
<text text-anchor="start" x="908.5562" y="-495.845" font-family="Times,serif" font-size="14.00" fill="#000000">id:</text>
<text text-anchor="start" x="923.3354" y="-495.845" font-family="Helvetica,sans-Serif" font-style="oblique" font-size="10.00" fill="#000000">INT</text>
<polygon fill="none" stroke="#000000" points="833,-469.045 833,-489.045 1015,-489.045 1015,-469.045 833,-469.045"/>
<text text-anchor="start" x="867.2617" y="-475.845" font-family="Times,serif" font-size="14.00" fill="#000000">user_token:</text>
<text text-anchor="start" x="932.5791" y="-475.845" font-family="Helvetica,sans-Serif" font-style="oblique" font-size="10.00" fill="#000000">VARCHAR</text>
<polygon fill="none" stroke="#000000" points="833,-449.045 833,-469.045 1015,-469.045 1015,-449.045 833,-449.045"/>
<text text-anchor="start" x="837.4795" y="-455.845" font-family="Times,serif" font-size="14.00" fill="#000000">last_known_position_lat:</text>
<text text-anchor="start" x="979.0313" y="-455.845" font-family="Helvetica,sans-Serif" font-style="oblique" font-size="10.00" fill="#000000">FLOAT</text>
<polygon fill="none" stroke="#000000" points="833,-429.045 833,-449.045 1015,-449.045 1015,-429.045 833,-429.045"/>
<text text-anchor="start" x="835.5313" y="-435.845" font-family="Times,serif" font-size="14.00" fill="#000000">last_known_position_lng:</text>
<text text-anchor="start" x="980.9795" y="-435.845" font-family="Helvetica,sans-Serif" font-style="oblique" font-size="10.00" fill="#000000">FLOAT</text>
<polygon fill="none" stroke="#000000" points="833,-409.045 833,-429.045 1015,-429.045 1015,-409.045 833,-409.045"/>
<text text-anchor="start" x="866.4351" y="-415.845" font-family="Times,serif" font-size="14.00" fill="#000000">updated_at:</text>
<text text-anchor="start" x="931.7456" y="-415.845" font-family="Helvetica,sans-Serif" font-style="oblique" font-size="10.00" fill="#000000">DATETIME</text>
</g>
<!-- calendars&#45;&gt;users -->
<g id="edge1" class="edge">
<title>calendars:user_id&#45;&gt;users:id</title>
<path fill="none" stroke="#444444" stroke-dasharray="5,2" d="M679,-215.045C819.0796,-215.045 695.7524,-485.3471 822.9703,-498.5455"/>
<polygon fill="#444444" stroke="#444444" points="832.8259,-502.5407 823.0124,-498.5475 833.1741,-495.5494 832.8259,-502.5407"/>
</g>
<!-- companies -->
<g id="node2" class="node">
<title>companies</title>
<polygon fill="#dddddd" stroke="transparent" points="8,-441.045 8,-461.045 154,-461.045 154,-441.045 8,-441.045"/>
<polygon fill="none" stroke="#000000" points="8,-441.045 8,-461.045 154,-461.045 154,-441.045 8,-441.045"/>
<text text-anchor="start" x="51.0654" y="-446.845" font-family="Times,serif" font-size="14.00" fill="#000000">companies</text>
<polygon fill="none" stroke="#000000" points="8,-421.045 8,-441.045 154,-441.045 154,-421.045 8,-421.045"/>
<text text-anchor="start" x="65.5562" y="-427.845" font-family="Times,serif" font-size="14.00" fill="#000000">id:</text>
<text text-anchor="start" x="80.3354" y="-427.845" font-family="Helvetica,sans-Serif" font-style="oblique" font-size="10.00" fill="#000000">INT</text>
<polygon fill="none" stroke="#000000" points="8,-401.045 8,-421.045 154,-421.045 154,-401.045 8,-401.045"/>
<text text-anchor="start" x="12.9858" y="-407.845" font-family="Times,serif" font-size="14.00" fill="#000000">phone_number:</text>
<text text-anchor="start" x="100.855" y="-407.845" font-family="Helvetica,sans-Serif" font-style="oblique" font-size="10.00" fill="#000000">VARCHAR</text>
<polygon fill="none" stroke="#000000" points="8,-381.045 8,-401.045 154,-401.045 154,-381.045 8,-381.045"/>
<text text-anchor="start" x="45.6733" y="-387.845" font-family="Times,serif" font-size="14.00" fill="#000000">content:</text>
<text text-anchor="start" x="90.77" y="-387.845" font-family="Helvetica,sans-Serif" font-style="oblique" font-size="10.00" fill="#000000">TEXT</text>
<polygon fill="none" stroke="#000000" points="8,-361.045 8,-381.045 154,-381.045 154,-361.045 8,-361.045"/>
<text text-anchor="start" x="33.6284" y="-367.845" font-family="Times,serif" font-size="14.00" fill="#000000">url_redirect:</text>
<text text-anchor="start" x="102.8149" y="-367.845" font-family="Helvetica,sans-Serif" font-style="oblique" font-size="10.00" fill="#000000">TEXT</text>
<polygon fill="none" stroke="#000000" points="8,-341.045 8,-361.045 154,-361.045 154,-341.045 8,-341.045"/>
<text text-anchor="start" x="10.6582" y="-347.845" font-family="Times,serif" font-size="14.00" fill="#000000">company_name:</text>
<text text-anchor="start" x="103.1826" y="-347.845" font-family="Helvetica,sans-Serif" font-style="oblique" font-size="10.00" fill="#000000">VARCHAR</text>
</g>
<!-- devices -->
<g id="node3" class="node">
<title>devices</title>
<polygon fill="#dddddd" stroke="transparent" points="570,-687.045 570,-707.045 701,-707.045 701,-687.045 570,-687.045"/>
<polygon fill="none" stroke="#000000" points="570,-687.045 570,-707.045 701,-707.045 701,-687.045 570,-687.045"/>
<text text-anchor="start" x="614.5103" y="-692.845" font-family="Times,serif" font-size="14.00" fill="#000000">devices</text>
<polygon fill="none" stroke="#000000" points="570,-667.045 570,-687.045 701,-687.045 701,-667.045 570,-667.045"/>
<text text-anchor="start" x="620.0562" y="-673.845" font-family="Times,serif" font-size="14.00" fill="#000000">id:</text>
<text text-anchor="start" x="634.8354" y="-673.845" font-family="Helvetica,sans-Serif" font-style="oblique" font-size="10.00" fill="#000000">INT</text>
<polygon fill="none" stroke="#000000" points="570,-647.045 570,-667.045 701,-667.045 701,-647.045 570,-647.045"/>
<text text-anchor="start" x="604.894" y="-653.845" font-family="Times,serif" font-size="14.00" fill="#000000">user_id:</text>
<text text-anchor="start" x="649.9976" y="-653.845" font-family="Helvetica,sans-Serif" font-style="oblique" font-size="10.00" fill="#000000">INT</text>
<polygon fill="none" stroke="#000000" points="570,-627.045 570,-647.045 701,-647.045 701,-627.045 570,-627.045"/>
<text text-anchor="start" x="572.5479" y="-633.845" font-family="Times,serif" font-size="14.00" fill="#000000">access_token:</text>
<text text-anchor="start" x="650.293" y="-633.845" font-family="Helvetica,sans-Serif" font-style="oblique" font-size="10.00" fill="#000000">VARCHAR</text>
<polygon fill="none" stroke="#000000" points="570,-607.045 570,-627.045 701,-627.045 701,-607.045 570,-607.045"/>
<text text-anchor="start" x="588.501" y="-613.845" font-family="Times,serif" font-size="14.00" fill="#000000">push_token:</text>
<text text-anchor="start" x="656.9424" y="-613.845" font-family="Helvetica,sans-Serif" font-style="oblique" font-size="10.00" fill="#000000">TEXT</text>
<polygon fill="none" stroke="#000000" points="570,-587.045 570,-607.045 701,-607.045 701,-587.045 570,-587.045"/>
<text text-anchor="start" x="575.6582" y="-593.845" font-family="Times,serif" font-size="14.00" fill="#000000">device_type:</text>
<text text-anchor="start" x="647.1826" y="-593.845" font-family="Helvetica,sans-Serif" font-style="oblique" font-size="10.00" fill="#000000">VARCHAR</text>
</g>
<!-- devices&#45;&gt;users -->
<g id="edge2" class="edge">
<title>devices:user_id&#45;&gt;users:id</title>
<path fill="none" stroke="#444444" stroke-dasharray="5,2" d="M701,-657.045C788.9294,-657.045 745.2637,-511.1477 822.9123,-499.7495"/>
<polygon fill="#444444" stroke="#444444" points="833.2438,-502.5365 823.0243,-499.7417 832.7562,-495.5535 833.2438,-502.5365"/>
</g>
<!-- events -->
<g id="node4" class="node">
<title>events</title>
<polygon fill="#dddddd" stroke="transparent" points="260,-432.045 260,-452.045 437,-452.045 437,-432.045 260,-432.045"/>
<polygon fill="none" stroke="#000000" points="260,-432.045 260,-452.045 437,-452.045 437,-432.045 260,-432.045"/>
<text text-anchor="start" x="330.6172" y="-437.845" font-family="Times,serif" font-size="14.00" fill="#000000">events</text>
<polygon fill="none" stroke="#000000" points="260,-412.045 260,-432.045 437,-432.045 437,-412.045 260,-412.045"/>
<text text-anchor="start" x="333.0562" y="-418.845" font-family="Times,serif" font-size="14.00" fill="#000000">id:</text>
<text text-anchor="start" x="347.8354" y="-418.845" font-family="Helvetica,sans-Serif" font-style="oblique" font-size="10.00" fill="#000000">INT</text>
<polygon fill="none" stroke="#000000" points="260,-392.045 260,-412.045 437,-412.045 437,-392.045 260,-392.045"/>
<text text-anchor="start" x="311.5894" y="-398.845" font-family="Times,serif" font-size="14.00" fill="#000000">title:</text>
<text text-anchor="start" x="337.2515" y="-398.845" font-family="Helvetica,sans-Serif" font-style="oblique" font-size="10.00" fill="#000000">VARCHAR</text>
<polygon fill="none" stroke="#000000" points="260,-372.045 260,-392.045 437,-392.045 437,-372.045 260,-372.045"/>
<text text-anchor="start" x="301.4824" y="-378.845" font-family="Times,serif" font-size="14.00" fill="#000000">address:</text>
<text text-anchor="start" x="347.3584" y="-378.845" font-family="Helvetica,sans-Serif" font-style="oblique" font-size="10.00" fill="#000000">VARCHAR</text>
<polygon fill="none" stroke="#000000" points="260,-352.045 260,-372.045 437,-372.045 437,-352.045 260,-352.045"/>
<text text-anchor="start" x="323.814" y="-358.845" font-family="Times,serif" font-size="14.00" fill="#000000">lat:</text>
<text text-anchor="start" x="341.6968" y="-358.845" font-family="Helvetica,sans-Serif" font-style="oblique" font-size="10.00" fill="#000000">FLOAT</text>
<polygon fill="none" stroke="#000000" points="260,-332.045 260,-352.045 437,-352.045 437,-332.045 260,-332.045"/>
<text text-anchor="start" x="321.8657" y="-338.845" font-family="Times,serif" font-size="14.00" fill="#000000">lng:</text>
<text text-anchor="start" x="343.645" y="-338.845" font-family="Helvetica,sans-Serif" font-style="oblique" font-size="10.00" fill="#000000">FLOAT</text>
<polygon fill="none" stroke="#000000" points="260,-312.045 260,-332.045 437,-332.045 437,-312.045 260,-312.045"/>
<text text-anchor="start" x="293.6523" y="-318.845" font-family="Times,serif" font-size="14.00" fill="#000000">start_time:</text>
<text text-anchor="start" x="353.5283" y="-318.845" font-family="Helvetica,sans-Serif" font-style="oblique" font-size="10.00" fill="#000000">DATETIME</text>
<polygon fill="none" stroke="#000000" points="260,-292.045 260,-312.045 437,-312.045 437,-292.045 260,-292.045"/>
<text text-anchor="start" x="295.5972" y="-298.845" font-family="Times,serif" font-size="14.00" fill="#000000">end_time:</text>
<text text-anchor="start" x="351.5835" y="-298.845" font-family="Helvetica,sans-Serif" font-style="oblique" font-size="10.00" fill="#000000">DATETIME</text>
<polygon fill="none" stroke="#000000" points="260,-272.045 260,-292.045 437,-292.045 437,-272.045 260,-272.045"/>
<text text-anchor="start" x="315.1733" y="-278.845" font-family="Times,serif" font-size="14.00" fill="#000000">duration:</text>
<text text-anchor="start" x="365.7183" y="-278.845" font-family="Helvetica,sans-Serif" font-style="oblique" font-size="10.00" fill="#000000">INT</text>
<polygon fill="none" stroke="#000000" points="260,-252.045 260,-272.045 437,-272.045 437,-252.045 260,-252.045"/>
<text text-anchor="start" x="309.2285" y="-258.845" font-family="Times,serif" font-size="14.00" fill="#000000">repetitions:</text>
<text text-anchor="start" x="372.2148" y="-258.845" font-family="Helvetica,sans-Serif" font-style="oblique" font-size="10.00" fill="#000000">BIT</text>
<polygon fill="none" stroke="#000000" points="260,-232.045 260,-252.045 437,-252.045 437,-232.045 260,-232.045"/>
<text text-anchor="start" x="305.8525" y="-238.845" font-family="Times,serif" font-size="14.00" fill="#000000">calendar_id:</text>
<text text-anchor="start" x="375.0391" y="-238.845" font-family="Helvetica,sans-Serif" font-style="oblique" font-size="10.00" fill="#000000">INT</text>
<polygon fill="none" stroke="#000000" points="260,-212.045 260,-232.045 437,-232.045 437,-212.045 260,-212.045"/>
<text text-anchor="start" x="311.1699" y="-218.845" font-family="Times,serif" font-size="14.00" fill="#000000">transports:</text>
<text text-anchor="start" x="370.2734" y="-218.845" font-family="Helvetica,sans-Serif" font-style="oblique" font-size="10.00" fill="#000000">BIT</text>
<polygon fill="none" stroke="#000000" points="260,-192.045 260,-212.045 437,-212.045 437,-192.045 260,-192.045"/>
<text text-anchor="start" x="262.5454" y="-198.845" font-family="Times,serif" font-size="14.00" fill="#000000">suggested_start_time:</text>
<text text-anchor="start" x="384.6353" y="-198.845" font-family="Helvetica,sans-Serif" font-style="oblique" font-size="10.00" fill="#000000">DATETIME</text>
<polygon fill="none" stroke="#000000" points="260,-172.045 260,-192.045 437,-192.045 437,-172.045 260,-172.045"/>
<text text-anchor="start" x="264.4902" y="-178.845" font-family="Times,serif" font-size="14.00" fill="#000000">suggested_end_time:</text>
<text text-anchor="start" x="382.6904" y="-178.845" font-family="Helvetica,sans-Serif" font-style="oblique" font-size="10.00" fill="#000000">DATETIME</text>
</g>
<!-- events&#45;&gt;calendars -->
<g id="edge3" class="edge">
<title>events:calendar_id&#45;&gt;calendars:id</title>
<path fill="none" stroke="#444444" stroke-dasharray="5,2" d="M437,-242.045C502.0358,-242.045 520.6285,-235.7379 580.9474,-235.0974"/>
<polygon fill="#444444" stroke="#444444" points="591.0183,-238.545 581.0001,-235.0972 590.9817,-231.5451 591.0183,-238.545"/>
</g>
<!-- events_travels -->
<g id="node5" class="node">
<title>events_travels</title>
<polygon fill="#dddddd" stroke="transparent" points="38,-286.045 38,-306.045 124,-306.045 124,-286.045 38,-286.045"/>
<polygon fill="none" stroke="#000000" points="38,-286.045 38,-306.045 124,-306.045 124,-286.045 38,-286.045"/>
<text text-anchor="start" x="40.9585" y="-291.845" font-family="Times,serif" font-size="14.00" fill="#000000">events_travels</text>
<polygon fill="none" stroke="#000000" points="38,-266.045 38,-286.045 124,-286.045 124,-266.045 38,-266.045"/>
<text text-anchor="start" x="46.8975" y="-272.845" font-family="Times,serif" font-size="14.00" fill="#000000">event_id:</text>
<text text-anchor="start" x="98.9941" y="-272.845" font-family="Helvetica,sans-Serif" font-style="oblique" font-size="10.00" fill="#000000">INT</text>
<polygon fill="none" stroke="#000000" points="38,-246.045 38,-266.045 124,-266.045 124,-246.045 38,-246.045"/>
<text text-anchor="start" x="46.1216" y="-252.845" font-family="Times,serif" font-size="14.00" fill="#000000">travel_id:</text>
<text text-anchor="start" x="99.77" y="-252.845" font-family="Helvetica,sans-Serif" font-style="oblique" font-size="10.00" fill="#000000">INT</text>
</g>
<!-- events_travels&#45;&gt;events -->
<g id="edge4" class="edge">
<title>events_travels:event_id&#45;&gt;events:id</title>
<path fill="none" stroke="#444444" stroke-dasharray="5,2" d="M124,-276.045C209.0425,-276.045 174.4943,-410.3141 249.7266,-421.3284"/>
<polygon fill="#444444" stroke="#444444" points="259.7564,-425.5366 250.0242,-421.349 260.2436,-418.5535 259.7564,-425.5366"/>
</g>
<!-- travels -->
<g id="node7" class="node">
<title>travels</title>
<polygon fill="#dddddd" stroke="transparent" points="285,-109.045 285,-129.045 411,-129.045 411,-109.045 285,-109.045"/>
<polygon fill="none" stroke="#000000" points="285,-109.045 285,-129.045 411,-129.045 411,-109.045 285,-109.045"/>
<text text-anchor="start" x="329.3413" y="-114.845" font-family="Times,serif" font-size="14.00" fill="#000000">travels</text>
<polygon fill="none" stroke="#000000" points="285,-89.045 285,-109.045 411,-109.045 411,-89.045 285,-89.045"/>
<text text-anchor="start" x="332.5562" y="-95.845" font-family="Times,serif" font-size="14.00" fill="#000000">id:</text>
<text text-anchor="start" x="347.3354" y="-95.845" font-family="Helvetica,sans-Serif" font-style="oblique" font-size="10.00" fill="#000000">INT</text>
<polygon fill="none" stroke="#000000" points="285,-69.045 285,-89.045 411,-89.045 411,-69.045 285,-69.045"/>
<text text-anchor="start" x="323.6182" y="-75.845" font-family="Times,serif" font-size="14.00" fill="#000000">route:</text>
<text text-anchor="start" x="356.2734" y="-75.845" font-family="Helvetica,sans-Serif" font-style="oblique" font-size="10.00" fill="#000000">INT</text>
<polygon fill="none" stroke="#000000" points="285,-49.045 285,-69.045 411,-69.045 411,-49.045 285,-49.045"/>
<text text-anchor="start" x="325.5596" y="-55.845" font-family="Times,serif" font-size="14.00" fill="#000000">time:</text>
<text text-anchor="start" x="354.332" y="-55.845" font-family="Helvetica,sans-Serif" font-style="oblique" font-size="10.00" fill="#000000">INT</text>
<polygon fill="none" stroke="#000000" points="285,-29.045 285,-49.045 411,-49.045 411,-29.045 285,-29.045"/>
<text text-anchor="start" x="287.792" y="-35.845" font-family="Times,serif" font-size="14.00" fill="#000000">transport_mean:</text>
<text text-anchor="start" x="378.7646" y="-35.845" font-family="Helvetica,sans-Serif" font-style="oblique" font-size="10.00" fill="#000000">ENUM</text>
<polygon fill="none" stroke="#000000" points="285,-9.045 285,-29.045 411,-29.045 411,-9.045 285,-9.045"/>
<text text-anchor="start" x="304.501" y="-15.845" font-family="Times,serif" font-size="14.00" fill="#000000">waypoints:</text>
<text text-anchor="start" x="365.9424" y="-15.845" font-family="Helvetica,sans-Serif" font-style="oblique" font-size="10.00" fill="#000000">TEXT</text>
</g>
<!-- events_travels&#45;&gt;travels -->
<g id="edge5" class="edge">
<title>events_travels:travel_id&#45;&gt;travels:id</title>
<path fill="none" stroke="#444444" stroke-dasharray="5,2" d="M124,-256.045C220.4319,-256.045 187.6173,-109.8901 274.9616,-99.6135"/>
<polygon fill="#444444" stroke="#444444" points="285.1979,-102.5394 275.016,-99.6106 284.8021,-95.5506 285.1979,-102.5394"/>
</g>
<!-- settings -->
<g id="node6" class="node">
<title>settings</title>
<polygon fill="#dddddd" stroke="transparent" points="543,-526.045 543,-546.045 727,-546.045 727,-526.045 543,-526.045"/>
<polygon fill="none" stroke="#000000" points="543,-526.045 543,-546.045 727,-546.045 727,-526.045 543,-526.045"/>
<text text-anchor="start" x="613.6104" y="-531.845" font-family="Times,serif" font-size="14.00" fill="#000000">settings</text>
<polygon fill="none" stroke="#000000" points="543,-506.045 543,-526.045 727,-526.045 727,-506.045 543,-506.045"/>
<text text-anchor="start" x="619.5562" y="-512.845" font-family="Times,serif" font-size="14.00" fill="#000000">id:</text>
<text text-anchor="start" x="634.3354" y="-512.845" font-family="Helvetica,sans-Serif" font-style="oblique" font-size="10.00" fill="#000000">INT</text>
<polygon fill="none" stroke="#000000" points="543,-486.045 543,-506.045 727,-506.045 727,-486.045 543,-486.045"/>
<text text-anchor="start" x="604.394" y="-492.845" font-family="Times,serif" font-size="14.00" fill="#000000">user_id:</text>
<text text-anchor="start" x="649.4976" y="-492.845" font-family="Helvetica,sans-Serif" font-style="oblique" font-size="10.00" fill="#000000">INT</text>
<polygon fill="none" stroke="#000000" points="543,-466.045 543,-486.045 727,-486.045 727,-466.045 543,-466.045"/>
<text text-anchor="start" x="596.5112" y="-472.845" font-family="Times,serif" font-size="14.00" fill="#000000">eco_mode:</text>
<text text-anchor="start" x="657.9321" y="-472.845" font-family="Helvetica,sans-Serif" font-style="oblique" font-size="10.00" fill="#000000">BIT</text>
<polygon fill="none" stroke="#000000" points="543,-446.045 543,-466.045 727,-466.045 727,-446.045 543,-446.045"/>
<text text-anchor="start" x="560.4629" y="-452.845" font-family="Times,serif" font-size="14.00" fill="#000000">max_walking_distance:</text>
<text text-anchor="start" x="693.4287" y="-452.845" font-family="Helvetica,sans-Serif" font-style="oblique" font-size="10.00" fill="#000000">INT</text>
<polygon fill="none" stroke="#000000" points="543,-426.045 543,-446.045 727,-446.045 727,-426.045 543,-426.045"/>
<text text-anchor="start" x="565.125" y="-432.845" font-family="Times,serif" font-size="14.00" fill="#000000">max_biking_distance:</text>
<text text-anchor="start" x="688.7666" y="-432.845" font-family="Helvetica,sans-Serif" font-style="oblique" font-size="10.00" fill="#000000">INT</text>
<polygon fill="none" stroke="#000000" points="543,-406.045 543,-426.045 727,-426.045 727,-406.045 543,-406.045"/>
<text text-anchor="start" x="545.6841" y="-412.845" font-family="Times,serif" font-size="14.00" fill="#000000">start_public_transportation:</text>
<text text-anchor="start" x="700.4292" y="-412.845" font-family="Helvetica,sans-Serif" font-style="oblique" font-size="10.00" fill="#000000">TIME</text>
<polygon fill="none" stroke="#000000" points="543,-386.045 543,-406.045 727,-406.045 727,-386.045 543,-386.045"/>
<text text-anchor="start" x="547.6289" y="-392.845" font-family="Times,serif" font-size="14.00" fill="#000000">end_public_transportation:</text>
<text text-anchor="start" x="698.4844" y="-392.845" font-family="Helvetica,sans-Serif" font-style="oblique" font-size="10.00" fill="#000000">TIME</text>
<polygon fill="none" stroke="#000000" points="543,-366.045 543,-386.045 727,-386.045 727,-366.045 543,-366.045"/>
<text text-anchor="start" x="584.4595" y="-372.845" font-family="Times,serif" font-size="14.00" fill="#000000">enjoy_enabled:</text>
<text text-anchor="start" x="669.9839" y="-372.845" font-family="Helvetica,sans-Serif" font-style="oblique" font-size="10.00" fill="#000000">BIT</text>
<polygon fill="none" stroke="#000000" points="543,-346.045 543,-366.045 727,-366.045 727,-346.045 543,-346.045"/>
<text text-anchor="start" x="580.9663" y="-352.845" font-family="Times,serif" font-size="14.00" fill="#000000">car2go_enabled:</text>
<text text-anchor="start" x="673.4771" y="-352.845" font-family="Helvetica,sans-Serif" font-style="oblique" font-size="10.00" fill="#000000">BIT</text>
<polygon fill="none" stroke="#000000" points="543,-326.045 543,-346.045 727,-346.045 727,-326.045 543,-326.045"/>
<text text-anchor="start" x="587.5732" y="-332.845" font-family="Times,serif" font-size="14.00" fill="#000000">uber_enabled:</text>
<text text-anchor="start" x="666.8701" y="-332.845" font-family="Helvetica,sans-Serif" font-style="oblique" font-size="10.00" fill="#000000">BIT</text>
<polygon fill="none" stroke="#000000" points="543,-306.045 543,-326.045 727,-326.045 727,-306.045 543,-306.045"/>
<text text-anchor="start" x="579.0146" y="-312.845" font-family="Times,serif" font-size="14.00" fill="#000000">mobike_enabled:</text>
<text text-anchor="start" x="675.4287" y="-312.845" font-family="Helvetica,sans-Serif" font-style="oblique" font-size="10.00" fill="#000000">BIT</text>
</g>
<!-- settings&#45;&gt;users -->
<g id="edge6" class="edge">
<title>settings:user_id&#45;&gt;users:id</title>
<path fill="none" stroke="#444444" stroke-dasharray="5,2" d="M727,-496.045C770.4479,-496.045 783.8196,-498.5946 822.5682,-498.993"/>
<polygon fill="#444444" stroke="#444444" points="832.9825,-502.545 823.0001,-498.995 833.0175,-495.5451 832.9825,-502.545"/>
</g>
</g>
</svg>
