<?xml version="1.0" encoding="UTF-8" standalone="no"?>
<!DOCTYPE svg PUBLIC "-//W3C//DTD SVG 1.1//EN"
 "http://www.w3.org/Graphics/SVG/1.1/DTD/svg11.dtd">
<!-- Generated by graphviz version 2.40.1 (20161225.0304)
 -->
<!-- Title: Database Structure Pages: 1 -->
<svg width="976pt" height="708pt"
 viewBox="0.00 0.00 976.00 707.60" xmlns="http://www.w3.org/2000/svg" xmlns:xlink="http://www.w3.org/1999/xlink">
<g id="graph0" class="graph" transform="scale(1 1) rotate(0) translate(4 703.6)">
<title>Database Structure</title>
<polygon fill="#ffffff" stroke="transparent" points="-4,4 -4,-703.6 972,-703.6 972,4 -4,4"/>
<text text-anchor="middle" x="484" y="-684.4" font-family="Helvetica,sans-Serif" font-size="14.00" fill="#000000">ER Diagram: travlendar+</text>
<!-- calendars -->
<g id="node1" class="node">
<title>calendars</title>
<polygon fill="#dddddd" stroke="transparent" points="536,-203.1885 536,-223.1885 624,-223.1885 624,-203.1885 536,-203.1885"/>
<polygon fill="none" stroke="#000000" points="536,-203.1885 536,-223.1885 624,-223.1885 624,-203.1885 536,-203.1885"/>
<text text-anchor="start" x="553.5723" y="-208.9885" font-family="Times,serif" font-size="14.00" fill="#000000">calendars</text>
<polygon fill="none" stroke="#000000" points="536,-183.1885 536,-203.1885 624,-203.1885 624,-183.1885 536,-183.1885"/>
<text text-anchor="start" x="564.5562" y="-189.9885" font-family="Times,serif" font-size="14.00" fill="#000000">id:</text>
<text text-anchor="start" x="579.3354" y="-189.9885" font-family="Helvetica,sans-Serif" font-style="oblique" font-size="10.00" fill="#000000">INT</text>
<polygon fill="none" stroke="#000000" points="536,-163.1885 536,-183.1885 624,-183.1885 624,-163.1885 536,-163.1885"/>
<text text-anchor="start" x="549.394" y="-169.9885" font-family="Times,serif" font-size="14.00" fill="#000000">user_id:</text>
<text text-anchor="start" x="594.4976" y="-169.9885" font-family="Helvetica,sans-Serif" font-style="oblique" font-size="10.00" fill="#000000">INT</text>
<polygon fill="none" stroke="#000000" points="536,-143.1885 536,-163.1885 624,-163.1885 624,-143.1885 536,-143.1885"/>
<text text-anchor="start" x="538.8169" y="-149.9885" font-family="Times,serif" font-size="14.00" fill="#000000">name:</text>
<text text-anchor="start" x="573.0239" y="-149.9885" font-family="Helvetica,sans-Serif" font-style="oblique" font-size="10.00" fill="#000000">VARCHAR</text>
<polygon fill="none" stroke="#000000" points="536,-123.1885 536,-143.1885 624,-143.1885 624,-123.1885 536,-123.1885"/>
<text text-anchor="start" x="539.5928" y="-129.9885" font-family="Times,serif" font-size="14.00" fill="#000000">color:</text>
<text text-anchor="start" x="572.248" y="-129.9885" font-family="Helvetica,sans-Serif" font-style="oblique" font-size="10.00" fill="#000000">VARCHAR</text>
</g>
<!-- users -->
<g id="node8" class="node">
<title>users</title>
<polygon fill="#dddddd" stroke="transparent" points="778,-468.1885 778,-488.1885 960,-488.1885 960,-468.1885 778,-468.1885"/>
<polygon fill="none" stroke="#000000" points="778,-468.1885 778,-488.1885 960,-488.1885 960,-468.1885 778,-468.1885"/>
<text text-anchor="start" x="854.6138" y="-473.9885" font-family="Times,serif" font-size="14.00" fill="#000000">users</text>
<polygon fill="none" stroke="#000000" points="778,-448.1885 778,-468.1885 960,-468.1885 960,-448.1885 778,-448.1885"/>
<text text-anchor="start" x="853.5562" y="-454.9885" font-family="Times,serif" font-size="14.00" fill="#000000">id:</text>
<text text-anchor="start" x="868.3354" y="-454.9885" font-family="Helvetica,sans-Serif" font-style="oblique" font-size="10.00" fill="#000000">INT</text>
<polygon fill="none" stroke="#000000" points="778,-428.1885 778,-448.1885 960,-448.1885 960,-428.1885 778,-428.1885"/>
<text text-anchor="start" x="812.2617" y="-434.9885" font-family="Times,serif" font-size="14.00" fill="#000000">user_token:</text>
<text text-anchor="start" x="877.5791" y="-434.9885" font-family="Helvetica,sans-Serif" font-style="oblique" font-size="10.00" fill="#000000">VARCHAR</text>
<polygon fill="none" stroke="#000000" points="778,-408.1885 778,-428.1885 960,-428.1885 960,-408.1885 778,-408.1885"/>
<text text-anchor="start" x="782.4795" y="-414.9885" font-family="Times,serif" font-size="14.00" fill="#000000">last_known_position_lat:</text>
<text text-anchor="start" x="924.0313" y="-414.9885" font-family="Helvetica,sans-Serif" font-style="oblique" font-size="10.00" fill="#000000">FLOAT</text>
<polygon fill="none" stroke="#000000" points="778,-388.1885 778,-408.1885 960,-408.1885 960,-388.1885 778,-388.1885"/>
<text text-anchor="start" x="780.5313" y="-394.9885" font-family="Times,serif" font-size="14.00" fill="#000000">last_known_position_lng:</text>
<text text-anchor="start" x="925.9795" y="-394.9885" font-family="Helvetica,sans-Serif" font-style="oblique" font-size="10.00" fill="#000000">FLOAT</text>
<polygon fill="none" stroke="#000000" points="778,-368.1885 778,-388.1885 960,-388.1885 960,-368.1885 778,-368.1885"/>
<text text-anchor="start" x="811.4351" y="-374.9885" font-family="Times,serif" font-size="14.00" fill="#000000">updated_at:</text>
<text text-anchor="start" x="876.7456" y="-374.9885" font-family="Helvetica,sans-Serif" font-style="oblique" font-size="10.00" fill="#000000">DATETIME</text>
</g>
<!-- calendars&#45;&gt;users -->
<g id="edge1" class="edge">
<title>calendars:user_id&#45;&gt;users:id</title>
<path fill="none" stroke="#444444" stroke-dasharray="5,2" d="M624,-173.1885C764.461,-173.1885 640.399,-444.4424 767.9438,-457.6872"/>
<polygon fill="#444444" stroke="#444444" points="777.8257,-461.6842 768.0124,-457.6905 778.1743,-454.6928 777.8257,-461.6842"/>
</g>
<!-- company -->
<g id="node2" class="node">
<title>company</title>
<polygon fill="#dddddd" stroke="transparent" points="8,-422.1885 8,-442.1885 150,-442.1885 150,-422.1885 8,-422.1885"/>
<polygon fill="none" stroke="#000000" points="8,-422.1885 8,-442.1885 150,-442.1885 150,-422.1885 8,-422.1885"/>
<text text-anchor="start" x="53.3413" y="-427.9885" font-family="Times,serif" font-size="14.00" fill="#000000">company</text>
<polygon fill="none" stroke="#000000" points="8,-402.1885 8,-422.1885 150,-422.1885 150,-402.1885 8,-402.1885"/>
<text text-anchor="start" x="63.5562" y="-408.9885" font-family="Times,serif" font-size="14.00" fill="#000000">id:</text>
<text text-anchor="start" x="78.3354" y="-408.9885" font-family="Helvetica,sans-Serif" font-style="oblique" font-size="10.00" fill="#000000">INT</text>
<polygon fill="none" stroke="#000000" points="8,-382.1885 8,-402.1885 150,-402.1885 150,-382.1885 8,-382.1885"/>
<text text-anchor="start" x="10.9858" y="-388.9885" font-family="Times,serif" font-size="14.00" fill="#000000">phone_number:</text>
<text text-anchor="start" x="98.855" y="-388.9885" font-family="Helvetica,sans-Serif" font-style="oblique" font-size="10.00" fill="#000000">VARCHAR</text>
<polygon fill="none" stroke="#000000" points="8,-362.1885 8,-382.1885 150,-382.1885 150,-362.1885 8,-362.1885"/>
<text text-anchor="start" x="43.6733" y="-368.9885" font-family="Times,serif" font-size="14.00" fill="#000000">content:</text>
<text text-anchor="start" x="88.77" y="-368.9885" font-family="Helvetica,sans-Serif" font-style="oblique" font-size="10.00" fill="#000000">TEXT</text>
<polygon fill="none" stroke="#000000" points="8,-342.1885 8,-362.1885 150,-362.1885 150,-342.1885 8,-342.1885"/>
<text text-anchor="start" x="31.6284" y="-348.9885" font-family="Times,serif" font-size="14.00" fill="#000000">url_redirect:</text>
<text text-anchor="start" x="100.8149" y="-348.9885" font-family="Helvetica,sans-Serif" font-style="oblique" font-size="10.00" fill="#000000">TEXT</text>
<polygon fill="none" stroke="#000000" points="8,-322.1885 8,-342.1885 150,-342.1885 150,-322.1885 8,-322.1885"/>
<text text-anchor="start" x="37.8169" y="-328.9885" font-family="Times,serif" font-size="14.00" fill="#000000">name:</text>
<text text-anchor="start" x="72.0239" y="-328.9885" font-family="Helvetica,sans-Serif" font-style="oblique" font-size="10.00" fill="#000000">VARCHAR</text>
</g>
<!-- devices -->
<g id="node3" class="node">
<title>devices</title>
<polygon fill="#dddddd" stroke="transparent" points="515,-648.1885 515,-668.1885 646,-668.1885 646,-648.1885 515,-648.1885"/>
<polygon fill="none" stroke="#000000" points="515,-648.1885 515,-668.1885 646,-668.1885 646,-648.1885 515,-648.1885"/>
<text text-anchor="start" x="559.5103" y="-653.9885" font-family="Times,serif" font-size="14.00" fill="#000000">devices</text>
<polygon fill="none" stroke="#000000" points="515,-628.1885 515,-648.1885 646,-648.1885 646,-628.1885 515,-628.1885"/>
<text text-anchor="start" x="565.0562" y="-634.9885" font-family="Times,serif" font-size="14.00" fill="#000000">id:</text>
<text text-anchor="start" x="579.8354" y="-634.9885" font-family="Helvetica,sans-Serif" font-style="oblique" font-size="10.00" fill="#000000">INT</text>
<polygon fill="none" stroke="#000000" points="515,-608.1885 515,-628.1885 646,-628.1885 646,-608.1885 515,-608.1885"/>
<text text-anchor="start" x="549.894" y="-614.9885" font-family="Times,serif" font-size="14.00" fill="#000000">user_id:</text>
<text text-anchor="start" x="594.9976" y="-614.9885" font-family="Helvetica,sans-Serif" font-style="oblique" font-size="10.00" fill="#000000">INT</text>
<polygon fill="none" stroke="#000000" points="515,-588.1885 515,-608.1885 646,-608.1885 646,-588.1885 515,-588.1885"/>
<text text-anchor="start" x="517.5479" y="-594.9885" font-family="Times,serif" font-size="14.00" fill="#000000">access_token:</text>
<text text-anchor="start" x="595.293" y="-594.9885" font-family="Helvetica,sans-Serif" font-style="oblique" font-size="10.00" fill="#000000">VARCHAR</text>
<polygon fill="none" stroke="#000000" points="515,-568.1885 515,-588.1885 646,-588.1885 646,-568.1885 515,-568.1885"/>
<text text-anchor="start" x="533.501" y="-574.9885" font-family="Times,serif" font-size="14.00" fill="#000000">push_token:</text>
<text text-anchor="start" x="601.9424" y="-574.9885" font-family="Helvetica,sans-Serif" font-style="oblique" font-size="10.00" fill="#000000">TEXT</text>
<polygon fill="none" stroke="#000000" points="515,-548.1885 515,-568.1885 646,-568.1885 646,-548.1885 515,-548.1885"/>
<text text-anchor="start" x="520.6582" y="-554.9885" font-family="Times,serif" font-size="14.00" fill="#000000">device_type:</text>
<text text-anchor="start" x="592.1826" y="-554.9885" font-family="Helvetica,sans-Serif" font-style="oblique" font-size="10.00" fill="#000000">VARCHAR</text>
</g>
<!-- devices&#45;&gt;users -->
<g id="edge2" class="edge">
<title>devices:user_id&#45;&gt;users:id</title>
<path fill="none" stroke="#444444" stroke-dasharray="5,2" d="M646,-618.1885C734.5866,-618.1885 689.6836,-470.4444 767.8413,-458.9018"/>
<polygon fill="#444444" stroke="#444444" points="778.2452,-461.6799 768.0246,-458.8891 777.7548,-454.6971 778.2452,-461.6799"/>
</g>
<!-- events -->
<g id="node4" class="node">
<title>events</title>
<polygon fill="#dddddd" stroke="transparent" points="269,-392.1885 269,-412.1885 369,-412.1885 369,-392.1885 269,-392.1885"/>
<polygon fill="none" stroke="#000000" points="269,-392.1885 269,-412.1885 369,-412.1885 369,-392.1885 269,-392.1885"/>
<text text-anchor="start" x="301.1172" y="-397.9885" font-family="Times,serif" font-size="14.00" fill="#000000">events</text>
<polygon fill="none" stroke="#000000" points="269,-372.1885 269,-392.1885 369,-392.1885 369,-372.1885 269,-372.1885"/>
<text text-anchor="start" x="303.5562" y="-378.9885" font-family="Times,serif" font-size="14.00" fill="#000000">id:</text>
<text text-anchor="start" x="318.3354" y="-378.9885" font-family="Helvetica,sans-Serif" font-style="oblique" font-size="10.00" fill="#000000">INT</text>
<polygon fill="none" stroke="#000000" points="269,-352.1885 269,-372.1885 369,-372.1885 369,-352.1885 269,-352.1885"/>
<text text-anchor="start" x="282.0894" y="-358.9885" font-family="Times,serif" font-size="14.00" fill="#000000">title:</text>
<text text-anchor="start" x="307.7515" y="-358.9885" font-family="Helvetica,sans-Serif" font-style="oblique" font-size="10.00" fill="#000000">VARCHAR</text>
<polygon fill="none" stroke="#000000" points="269,-332.1885 269,-352.1885 369,-352.1885 369,-332.1885 269,-332.1885"/>
<text text-anchor="start" x="271.9824" y="-338.9885" font-family="Times,serif" font-size="14.00" fill="#000000">address:</text>
<text text-anchor="start" x="317.8584" y="-338.9885" font-family="Helvetica,sans-Serif" font-style="oblique" font-size="10.00" fill="#000000">VARCHAR</text>
<polygon fill="none" stroke="#000000" points="269,-312.1885 269,-332.1885 369,-332.1885 369,-312.1885 269,-312.1885"/>
<text text-anchor="start" x="294.314" y="-318.9885" font-family="Times,serif" font-size="14.00" fill="#000000">lat:</text>
<text text-anchor="start" x="312.1968" y="-318.9885" font-family="Helvetica,sans-Serif" font-style="oblique" font-size="10.00" fill="#000000">FLOAT</text>
<polygon fill="none" stroke="#000000" points="269,-292.1885 269,-312.1885 369,-312.1885 369,-292.1885 269,-292.1885"/>
<text text-anchor="start" x="292.3657" y="-298.9885" font-family="Times,serif" font-size="14.00" fill="#000000">lng:</text>
<text text-anchor="start" x="314.145" y="-298.9885" font-family="Helvetica,sans-Serif" font-style="oblique" font-size="10.00" fill="#000000">FLOAT</text>
<polygon fill="none" stroke="#000000" points="269,-272.1885 269,-292.1885 369,-292.1885 369,-272.1885 269,-272.1885"/>
<text text-anchor="start" x="280.0938" y="-278.9885" font-family="Times,serif" font-size="14.00" fill="#000000">start:</text>
<text text-anchor="start" x="308.0869" y="-278.9885" font-family="Helvetica,sans-Serif" font-style="oblique" font-size="10.00" fill="#000000">DATETIME</text>
<polygon fill="none" stroke="#000000" points="269,-252.1885 269,-272.1885 369,-272.1885 369,-252.1885 269,-252.1885"/>
<text text-anchor="start" x="282.0386" y="-258.9885" font-family="Times,serif" font-size="14.00" fill="#000000">end:</text>
<text text-anchor="start" x="306.1421" y="-258.9885" font-family="Helvetica,sans-Serif" font-style="oblique" font-size="10.00" fill="#000000">DATETIME</text>
<polygon fill="none" stroke="#000000" points="269,-232.1885 269,-252.1885 369,-252.1885 369,-232.1885 269,-232.1885"/>
<text text-anchor="start" x="285.6733" y="-238.9885" font-family="Times,serif" font-size="14.00" fill="#000000">duration:</text>
<text text-anchor="start" x="336.2183" y="-238.9885" font-family="Helvetica,sans-Serif" font-style="oblique" font-size="10.00" fill="#000000">INT</text>
<polygon fill="none" stroke="#000000" points="269,-212.1885 269,-232.1885 369,-232.1885 369,-212.1885 269,-212.1885"/>
<text text-anchor="start" x="279.7285" y="-218.9885" font-family="Times,serif" font-size="14.00" fill="#000000">repetitions:</text>
<text text-anchor="start" x="342.7148" y="-218.9885" font-family="Helvetica,sans-Serif" font-style="oblique" font-size="10.00" fill="#000000">BIT</text>
<polygon fill="none" stroke="#000000" points="269,-192.1885 269,-212.1885 369,-212.1885 369,-192.1885 269,-192.1885"/>
<text text-anchor="start" x="276.3525" y="-198.9885" font-family="Times,serif" font-size="14.00" fill="#000000">calendar_id:</text>
<text text-anchor="start" x="345.5391" y="-198.9885" font-family="Helvetica,sans-Serif" font-style="oblique" font-size="10.00" fill="#000000">INT</text>
<polygon fill="none" stroke="#000000" points="269,-172.1885 269,-192.1885 369,-192.1885 369,-172.1885 269,-172.1885"/>
<text text-anchor="start" x="281.6699" y="-178.9885" font-family="Times,serif" font-size="14.00" fill="#000000">transports:</text>
<text text-anchor="start" x="340.7734" y="-178.9885" font-family="Helvetica,sans-Serif" font-style="oblique" font-size="10.00" fill="#000000">BIT</text>
</g>
<!-- events&#45;&gt;calendars -->
<g id="edge3" class="edge">
<title>events:calendar_id&#45;&gt;calendars:id</title>
<path fill="none" stroke="#444444" stroke-dasharray="5,2" d="M369,-202.1885C439.8457,-202.1885 459.8277,-194.0125 525.9049,-193.246"/>
<polygon fill="#444444" stroke="#444444" points="536.02,-196.6884 526.0002,-193.2455 535.98,-189.6886 536.02,-196.6884"/>
</g>
<!-- events_travels -->
<g id="node5" class="node">
<title>events_travels</title>
<polygon fill="#dddddd" stroke="transparent" points="36,-266.1885 36,-286.1885 122,-286.1885 122,-266.1885 36,-266.1885"/>
<polygon fill="none" stroke="#000000" points="36,-266.1885 36,-286.1885 122,-286.1885 122,-266.1885 36,-266.1885"/>
<text text-anchor="start" x="38.9585" y="-271.9885" font-family="Times,serif" font-size="14.00" fill="#000000">events_travels</text>
<polygon fill="none" stroke="#000000" points="36,-246.1885 36,-266.1885 122,-266.1885 122,-246.1885 36,-246.1885"/>
<text text-anchor="start" x="44.8975" y="-252.9885" font-family="Times,serif" font-size="14.00" fill="#000000">event_id:</text>
<text text-anchor="start" x="96.9941" y="-252.9885" font-family="Helvetica,sans-Serif" font-style="oblique" font-size="10.00" fill="#000000">INT</text>
<polygon fill="none" stroke="#000000" points="36,-226.1885 36,-246.1885 122,-246.1885 122,-226.1885 36,-226.1885"/>
<text text-anchor="start" x="44.1216" y="-232.9885" font-family="Times,serif" font-size="14.00" fill="#000000">travel_id:</text>
<text text-anchor="start" x="97.77" y="-232.9885" font-family="Helvetica,sans-Serif" font-style="oblique" font-size="10.00" fill="#000000">INT</text>
</g>
<!-- events_travels&#45;&gt;events -->
<g id="edge4" class="edge">
<title>events_travels:event_id&#45;&gt;events:id</title>
<path fill="none" stroke="#444444" stroke-dasharray="5,2" d="M122,-256.1885C204.5197,-256.1885 184.8228,-372.0645 258.9575,-381.57"/>
<polygon fill="#444444" stroke="#444444" points="268.7848,-385.6819 259.0189,-381.5737 269.2152,-378.6951 268.7848,-385.6819"/>
</g>
<!-- travels -->
<g id="node7" class="node">
<title>travels</title>
<polygon fill="#dddddd" stroke="transparent" points="256,-109.1885 256,-129.1885 382,-129.1885 382,-109.1885 256,-109.1885"/>
<polygon fill="none" stroke="#000000" points="256,-109.1885 256,-129.1885 382,-129.1885 382,-109.1885 256,-109.1885"/>
<text text-anchor="start" x="300.3413" y="-114.9885" font-family="Times,serif" font-size="14.00" fill="#000000">travels</text>
<polygon fill="none" stroke="#000000" points="256,-89.1885 256,-109.1885 382,-109.1885 382,-89.1885 256,-89.1885"/>
<text text-anchor="start" x="303.5562" y="-95.9885" font-family="Times,serif" font-size="14.00" fill="#000000">id:</text>
<text text-anchor="start" x="318.3354" y="-95.9885" font-family="Helvetica,sans-Serif" font-style="oblique" font-size="10.00" fill="#000000">INT</text>
<polygon fill="none" stroke="#000000" points="256,-69.1885 256,-89.1885 382,-89.1885 382,-69.1885 256,-69.1885"/>
<text text-anchor="start" x="294.6182" y="-75.9885" font-family="Times,serif" font-size="14.00" fill="#000000">route:</text>
<text text-anchor="start" x="327.2734" y="-75.9885" font-family="Helvetica,sans-Serif" font-style="oblique" font-size="10.00" fill="#000000">INT</text>
<polygon fill="none" stroke="#000000" points="256,-49.1885 256,-69.1885 382,-69.1885 382,-49.1885 256,-49.1885"/>
<text text-anchor="start" x="296.5596" y="-55.9885" font-family="Times,serif" font-size="14.00" fill="#000000">time:</text>
<text text-anchor="start" x="325.332" y="-55.9885" font-family="Helvetica,sans-Serif" font-style="oblique" font-size="10.00" fill="#000000">INT</text>
<polygon fill="none" stroke="#000000" points="256,-29.1885 256,-49.1885 382,-49.1885 382,-29.1885 256,-29.1885"/>
<text text-anchor="start" x="258.792" y="-35.9885" font-family="Times,serif" font-size="14.00" fill="#000000">transport_mean:</text>
<text text-anchor="start" x="349.7646" y="-35.9885" font-family="Helvetica,sans-Serif" font-style="oblique" font-size="10.00" fill="#000000">ENUM</text>
<polygon fill="none" stroke="#000000" points="256,-9.1885 256,-29.1885 382,-29.1885 382,-9.1885 256,-9.1885"/>
<text text-anchor="start" x="275.501" y="-15.9885" font-family="Times,serif" font-size="14.00" fill="#000000">waypoints:</text>
<text text-anchor="start" x="336.9424" y="-15.9885" font-family="Helvetica,sans-Serif" font-style="oblique" font-size="10.00" fill="#000000">TEXT</text>
</g>
<!-- events_travels&#45;&gt;travels -->
<g id="edge5" class="edge">
<title>events_travels:travel_id&#45;&gt;travels:id</title>
<path fill="none" stroke="#444444" stroke-dasharray="5,2" d="M122,-236.1885C203.5126,-236.1885 173.7267,-110.709 245.6746,-99.9256"/>
<polygon fill="#444444" stroke="#444444" points="256.2492,-102.6796 246.0254,-99.9006 255.7508,-95.6974 256.2492,-102.6796"/>
</g>
<!-- settings -->
<g id="node6" class="node">
<title>settings</title>
<polygon fill="#dddddd" stroke="transparent" points="488,-485.1885 488,-505.1885 672,-505.1885 672,-485.1885 488,-485.1885"/>
<polygon fill="none" stroke="#000000" points="488,-485.1885 488,-505.1885 672,-505.1885 672,-485.1885 488,-485.1885"/>
<text text-anchor="start" x="558.6104" y="-490.9885" font-family="Times,serif" font-size="14.00" fill="#000000">settings</text>
<polygon fill="none" stroke="#000000" points="488,-465.1885 488,-485.1885 672,-485.1885 672,-465.1885 488,-465.1885"/>
<text text-anchor="start" x="564.5562" y="-471.9885" font-family="Times,serif" font-size="14.00" fill="#000000">id:</text>
<text text-anchor="start" x="579.3354" y="-471.9885" font-family="Helvetica,sans-Serif" font-style="oblique" font-size="10.00" fill="#000000">INT</text>
<polygon fill="none" stroke="#000000" points="488,-445.1885 488,-465.1885 672,-465.1885 672,-445.1885 488,-445.1885"/>
<text text-anchor="start" x="549.394" y="-451.9885" font-family="Times,serif" font-size="14.00" fill="#000000">user_id:</text>
<text text-anchor="start" x="594.4976" y="-451.9885" font-family="Helvetica,sans-Serif" font-style="oblique" font-size="10.00" fill="#000000">INT</text>
<polygon fill="none" stroke="#000000" points="488,-425.1885 488,-445.1885 672,-445.1885 672,-425.1885 488,-425.1885"/>
<text text-anchor="start" x="541.5112" y="-431.9885" font-family="Times,serif" font-size="14.00" fill="#000000">eco_mode:</text>
<text text-anchor="start" x="602.9321" y="-431.9885" font-family="Helvetica,sans-Serif" font-style="oblique" font-size="10.00" fill="#000000">BIT</text>
<polygon fill="none" stroke="#000000" points="488,-405.1885 488,-425.1885 672,-425.1885 672,-405.1885 488,-405.1885"/>
<text text-anchor="start" x="505.4629" y="-411.9885" font-family="Times,serif" font-size="14.00" fill="#000000">max_walking_distance:</text>
<text text-anchor="start" x="638.4287" y="-411.9885" font-family="Helvetica,sans-Serif" font-style="oblique" font-size="10.00" fill="#000000">INT</text>
<polygon fill="none" stroke="#000000" points="488,-385.1885 488,-405.1885 672,-405.1885 672,-385.1885 488,-385.1885"/>
<text text-anchor="start" x="510.125" y="-391.9885" font-family="Times,serif" font-size="14.00" fill="#000000">max_biking_distance:</text>
<text text-anchor="start" x="633.7666" y="-391.9885" font-family="Helvetica,sans-Serif" font-style="oblique" font-size="10.00" fill="#000000">INT</text>
<polygon fill="none" stroke="#000000" points="488,-365.1885 488,-385.1885 672,-385.1885 672,-365.1885 488,-365.1885"/>
<text text-anchor="start" x="490.6841" y="-371.9885" font-family="Times,serif" font-size="14.00" fill="#000000">start_public_transportation:</text>
<text text-anchor="start" x="645.4292" y="-371.9885" font-family="Helvetica,sans-Serif" font-style="oblique" font-size="10.00" fill="#000000">TIME</text>
<polygon fill="none" stroke="#000000" points="488,-345.1885 488,-365.1885 672,-365.1885 672,-345.1885 488,-345.1885"/>
<text text-anchor="start" x="492.6289" y="-351.9885" font-family="Times,serif" font-size="14.00" fill="#000000">end_public_transportation:</text>
<text text-anchor="start" x="643.4844" y="-351.9885" font-family="Helvetica,sans-Serif" font-style="oblique" font-size="10.00" fill="#000000">TIME</text>
<polygon fill="none" stroke="#000000" points="488,-325.1885 488,-345.1885 672,-345.1885 672,-325.1885 488,-325.1885"/>
<text text-anchor="start" x="529.4595" y="-331.9885" font-family="Times,serif" font-size="14.00" fill="#000000">enjoy_enabled:</text>
<text text-anchor="start" x="614.9839" y="-331.9885" font-family="Helvetica,sans-Serif" font-style="oblique" font-size="10.00" fill="#000000">BIT</text>
<polygon fill="none" stroke="#000000" points="488,-305.1885 488,-325.1885 672,-325.1885 672,-305.1885 488,-305.1885"/>
<text text-anchor="start" x="525.9663" y="-311.9885" font-family="Times,serif" font-size="14.00" fill="#000000">car2go_enabled:</text>
<text text-anchor="start" x="618.4771" y="-311.9885" font-family="Helvetica,sans-Serif" font-style="oblique" font-size="10.00" fill="#000000">BIT</text>
<polygon fill="none" stroke="#000000" points="488,-285.1885 488,-305.1885 672,-305.1885 672,-285.1885 488,-285.1885"/>
<text text-anchor="start" x="532.5732" y="-291.9885" font-family="Times,serif" font-size="14.00" fill="#000000">uber_enabled:</text>
<text text-anchor="start" x="611.8701" y="-291.9885" font-family="Helvetica,sans-Serif" font-style="oblique" font-size="10.00" fill="#000000">BIT</text>
<polygon fill="none" stroke="#000000" points="488,-265.1885 488,-285.1885 672,-285.1885 672,-265.1885 488,-265.1885"/>
<text text-anchor="start" x="524.0146" y="-271.9885" font-family="Times,serif" font-size="14.00" fill="#000000">mobike_enabled:</text>
<text text-anchor="start" x="620.4287" y="-271.9885" font-family="Helvetica,sans-Serif" font-style="oblique" font-size="10.00" fill="#000000">BIT</text>
</g>
<!-- settings&#45;&gt;users -->
<g id="edge6" class="edge">
<title>settings:user_id&#45;&gt;users:id</title>
<path fill="none" stroke="#444444" stroke-dasharray="5,2" d="M672,-455.1885C715.4479,-455.1885 728.8196,-457.7381 767.5682,-458.1364"/>
<polygon fill="#444444" stroke="#444444" points="777.9825,-461.6885 768.0001,-458.1385 778.0175,-454.6885 777.9825,-461.6885"/>
</g>
</g>
</svg>
