<?xml version="1.0" encoding="UTF-8" standalone="no"?>
<!DOCTYPE svg PUBLIC "-//W3C//DTD SVG 1.1//EN"
 "http://www.w3.org/Graphics/SVG/1.1/DTD/svg11.dtd">
<!-- Generated by graphviz version 2.40.1 (20161225.0304)
 -->
<!-- Title: Database Structure Pages: 1 -->
<svg width="751pt" height="550pt"
 viewBox="0.00 0.00 750.86 550.00" xmlns="http://www.w3.org/2000/svg" xmlns:xlink="http://www.w3.org/1999/xlink">
<g id="graph0" class="graph" transform="scale(1 1) rotate(0) translate(4 546)">
<title>Database Structure</title>
<polygon fill="#ffffff" stroke="transparent" points="-4,4 -4,-546 746.8571,-546 746.8571,4 -4,4"/>
<text text-anchor="middle" x="371.4286" y="-526.8" font-family="Helvetica,sans-Serif" font-size="14.00" fill="#000000">ER Diagram: travlendar+</text>
<!-- calendars -->
<g id="node1" class="node">
<title>calendars</title>
<polygon fill="#dddddd" stroke="transparent" points="283.8571,-84 283.8571,-104 371.8571,-104 371.8571,-84 283.8571,-84"/>
<polygon fill="none" stroke="#000000" points="283.8571,-84 283.8571,-104 371.8571,-104 371.8571,-84 283.8571,-84"/>
<text text-anchor="start" x="301.4294" y="-89.8" font-family="Times,serif" font-size="14.00" fill="#000000">calendars</text>
<polygon fill="none" stroke="#000000" points="283.8571,-64 283.8571,-84 371.8571,-84 371.8571,-64 283.8571,-64"/>
<text text-anchor="start" x="312.4133" y="-70.8" font-family="Times,serif" font-size="14.00" fill="#000000">id:</text>
<text text-anchor="start" x="327.1926" y="-70.8" font-family="Helvetica,sans-Serif" font-style="oblique" font-size="10.00" fill="#000000">INT</text>
<polygon fill="none" stroke="#000000" points="283.8571,-44 283.8571,-64 371.8571,-64 371.8571,-44 283.8571,-44"/>
<text text-anchor="start" x="297.2512" y="-50.8" font-family="Times,serif" font-size="14.00" fill="#000000">user_id:</text>
<text text-anchor="start" x="342.3547" y="-50.8" font-family="Helvetica,sans-Serif" font-style="oblique" font-size="10.00" fill="#000000">INT</text>
<polygon fill="none" stroke="#000000" points="283.8571,-24 283.8571,-44 371.8571,-44 371.8571,-24 283.8571,-24"/>
<text text-anchor="start" x="286.674" y="-30.8" font-family="Times,serif" font-size="14.00" fill="#000000">name:</text>
<text text-anchor="start" x="320.8811" y="-30.8" font-family="Helvetica,sans-Serif" font-style="oblique" font-size="10.00" fill="#000000">VARCHAR</text>
<polygon fill="none" stroke="#000000" points="283.8571,-4 283.8571,-24 371.8571,-24 371.8571,-4 283.8571,-4"/>
<text text-anchor="start" x="287.4499" y="-10.8" font-family="Times,serif" font-size="14.00" fill="#000000">color:</text>
<text text-anchor="start" x="320.1052" y="-10.8" font-family="Helvetica,sans-Serif" font-style="oblique" font-size="10.00" fill="#000000">VARCHAR</text>
</g>
<!-- users -->
<g id="node5" class="node">
<title>users</title>
<polygon fill="#dddddd" stroke="transparent" points="545.8571,-330 545.8571,-350 727.8571,-350 727.8571,-330 545.8571,-330"/>
<polygon fill="none" stroke="#000000" points="545.8571,-330 545.8571,-350 727.8571,-350 727.8571,-330 545.8571,-330"/>
<text text-anchor="start" x="622.4709" y="-335.8" font-family="Times,serif" font-size="14.00" fill="#000000">users</text>
<polygon fill="none" stroke="#000000" points="545.8571,-310 545.8571,-330 727.8571,-330 727.8571,-310 545.8571,-310"/>
<text text-anchor="start" x="621.4133" y="-316.8" font-family="Times,serif" font-size="14.00" fill="#000000">id:</text>
<text text-anchor="start" x="636.1926" y="-316.8" font-family="Helvetica,sans-Serif" font-style="oblique" font-size="10.00" fill="#000000">INT</text>
<polygon fill="none" stroke="#000000" points="545.8571,-290 545.8571,-310 727.8571,-310 727.8571,-290 545.8571,-290"/>
<text text-anchor="start" x="580.1189" y="-296.8" font-family="Times,serif" font-size="14.00" fill="#000000">user_token:</text>
<text text-anchor="start" x="645.4362" y="-296.8" font-family="Helvetica,sans-Serif" font-style="oblique" font-size="10.00" fill="#000000">VARCHAR</text>
<polygon fill="none" stroke="#000000" points="545.8571,-270 545.8571,-290 727.8571,-290 727.8571,-270 545.8571,-270"/>
<text text-anchor="start" x="550.3366" y="-276.8" font-family="Times,serif" font-size="14.00" fill="#000000">last_known_position_lat:</text>
<text text-anchor="start" x="691.8884" y="-276.8" font-family="Helvetica,sans-Serif" font-style="oblique" font-size="10.00" fill="#000000">FLOAT</text>
<polygon fill="none" stroke="#000000" points="545.8571,-250 545.8571,-270 727.8571,-270 727.8571,-250 545.8571,-250"/>
<text text-anchor="start" x="548.3884" y="-256.8" font-family="Times,serif" font-size="14.00" fill="#000000">last_known_position_lng:</text>
<text text-anchor="start" x="693.8366" y="-256.8" font-family="Helvetica,sans-Serif" font-style="oblique" font-size="10.00" fill="#000000">FLOAT</text>
</g>
<!-- calendars&#45;&gt;users -->
<g id="edge1" class="edge">
<title>calendars:user_id&#45;&gt;users:id</title>
<path fill="none" stroke="#444444" stroke-dasharray="5,2" d="M371.8571,-54C509.5393,-54 409.9388,-306.6637 535.5714,-319.4943"/>
<polygon fill="#444444" stroke="#444444" points="545.6852,-323.4958 535.8692,-319.5088 546.0291,-316.5042 545.6852,-323.4958"/>
</g>
<!-- devices -->
<g id="node2" class="node">
<title>devices</title>
<polygon fill="#dddddd" stroke="transparent" points="262.8571,-496 262.8571,-516 393.8571,-516 393.8571,-496 262.8571,-496"/>
<polygon fill="none" stroke="#000000" points="262.8571,-496 262.8571,-516 393.8571,-516 393.8571,-496 262.8571,-496"/>
<text text-anchor="start" x="307.3674" y="-501.8" font-family="Times,serif" font-size="14.00" fill="#000000">devices</text>
<polygon fill="none" stroke="#000000" points="262.8571,-476 262.8571,-496 393.8571,-496 393.8571,-476 262.8571,-476"/>
<text text-anchor="start" x="312.9133" y="-482.8" font-family="Times,serif" font-size="14.00" fill="#000000">id:</text>
<text text-anchor="start" x="327.6926" y="-482.8" font-family="Helvetica,sans-Serif" font-style="oblique" font-size="10.00" fill="#000000">INT</text>
<polygon fill="none" stroke="#000000" points="262.8571,-456 262.8571,-476 393.8571,-476 393.8571,-456 262.8571,-456"/>
<text text-anchor="start" x="297.7512" y="-462.8" font-family="Times,serif" font-size="14.00" fill="#000000">user_id:</text>
<text text-anchor="start" x="342.8547" y="-462.8" font-family="Helvetica,sans-Serif" font-style="oblique" font-size="10.00" fill="#000000">INT</text>
<polygon fill="none" stroke="#000000" points="262.8571,-436 262.8571,-456 393.8571,-456 393.8571,-436 262.8571,-436"/>
<text text-anchor="start" x="265.405" y="-442.8" font-family="Times,serif" font-size="14.00" fill="#000000">access_token:</text>
<text text-anchor="start" x="343.1501" y="-442.8" font-family="Helvetica,sans-Serif" font-style="oblique" font-size="10.00" fill="#000000">VARCHAR</text>
<polygon fill="none" stroke="#000000" points="262.8571,-416 262.8571,-436 393.8571,-436 393.8571,-416 262.8571,-416"/>
<text text-anchor="start" x="281.3581" y="-422.8" font-family="Times,serif" font-size="14.00" fill="#000000">push_token:</text>
<text text-anchor="start" x="349.7995" y="-422.8" font-family="Helvetica,sans-Serif" font-style="oblique" font-size="10.00" fill="#000000">TEXT</text>
<polygon fill="none" stroke="#000000" points="262.8571,-396 262.8571,-416 393.8571,-416 393.8571,-396 262.8571,-396"/>
<text text-anchor="start" x="268.5153" y="-402.8" font-family="Times,serif" font-size="14.00" fill="#000000">device_type:</text>
<text text-anchor="start" x="340.0398" y="-402.8" font-family="Helvetica,sans-Serif" font-style="oblique" font-size="10.00" fill="#000000">VARCHAR</text>
</g>
<!-- devices&#45;&gt;users -->
<g id="edge2" class="edge">
<title>devices:user_id&#45;&gt;users:id</title>
<path fill="none" stroke="#444444" stroke-dasharray="5,2" d="M393.8571,-466C483.8695,-466 454.7501,-331.1835 535.4552,-320.6509"/>
<polygon fill="#444444" stroke="#444444" points="546.0758,-323.4932 535.8767,-320.6246 545.6385,-316.5068 546.0758,-323.4932"/>
</g>
<!-- events -->
<g id="node3" class="node">
<title>events</title>
<polygon fill="#dddddd" stroke="transparent" points="11.8571,-264 11.8571,-284 111.8571,-284 111.8571,-264 11.8571,-264"/>
<polygon fill="none" stroke="#000000" points="11.8571,-264 11.8571,-284 111.8571,-284 111.8571,-264 11.8571,-264"/>
<text text-anchor="start" x="43.9743" y="-269.8" font-family="Times,serif" font-size="14.00" fill="#000000">events</text>
<polygon fill="none" stroke="#000000" points="11.8571,-244 11.8571,-264 111.8571,-264 111.8571,-244 11.8571,-244"/>
<text text-anchor="start" x="46.4133" y="-250.8" font-family="Times,serif" font-size="14.00" fill="#000000">id:</text>
<text text-anchor="start" x="61.1926" y="-250.8" font-family="Helvetica,sans-Serif" font-style="oblique" font-size="10.00" fill="#000000">INT</text>
<polygon fill="none" stroke="#000000" points="11.8571,-224 11.8571,-244 111.8571,-244 111.8571,-224 11.8571,-224"/>
<text text-anchor="start" x="24.9465" y="-230.8" font-family="Times,serif" font-size="14.00" fill="#000000">title:</text>
<text text-anchor="start" x="50.6086" y="-230.8" font-family="Helvetica,sans-Serif" font-style="oblique" font-size="10.00" fill="#000000">VARCHAR</text>
<polygon fill="none" stroke="#000000" points="11.8571,-204 11.8571,-224 111.8571,-224 111.8571,-204 11.8571,-204"/>
<text text-anchor="start" x="14.8396" y="-210.8" font-family="Times,serif" font-size="14.00" fill="#000000">address:</text>
<text text-anchor="start" x="60.7155" y="-210.8" font-family="Helvetica,sans-Serif" font-style="oblique" font-size="10.00" fill="#000000">VARCHAR</text>
<polygon fill="none" stroke="#000000" points="11.8571,-184 11.8571,-204 111.8571,-204 111.8571,-184 11.8571,-184"/>
<text text-anchor="start" x="37.1711" y="-190.8" font-family="Times,serif" font-size="14.00" fill="#000000">lat:</text>
<text text-anchor="start" x="55.0539" y="-190.8" font-family="Helvetica,sans-Serif" font-style="oblique" font-size="10.00" fill="#000000">FLOAT</text>
<polygon fill="none" stroke="#000000" points="11.8571,-164 11.8571,-184 111.8571,-184 111.8571,-164 11.8571,-164"/>
<text text-anchor="start" x="35.2229" y="-170.8" font-family="Times,serif" font-size="14.00" fill="#000000">lng:</text>
<text text-anchor="start" x="57.0022" y="-170.8" font-family="Helvetica,sans-Serif" font-style="oblique" font-size="10.00" fill="#000000">FLOAT</text>
<polygon fill="none" stroke="#000000" points="11.8571,-144 11.8571,-164 111.8571,-164 111.8571,-144 11.8571,-144"/>
<text text-anchor="start" x="22.9509" y="-150.8" font-family="Times,serif" font-size="14.00" fill="#000000">start:</text>
<text text-anchor="start" x="50.9441" y="-150.8" font-family="Helvetica,sans-Serif" font-style="oblique" font-size="10.00" fill="#000000">DATETIME</text>
<polygon fill="none" stroke="#000000" points="11.8571,-124 11.8571,-144 111.8571,-144 111.8571,-124 11.8571,-124"/>
<text text-anchor="start" x="24.8957" y="-130.8" font-family="Times,serif" font-size="14.00" fill="#000000">end:</text>
<text text-anchor="start" x="48.9992" y="-130.8" font-family="Helvetica,sans-Serif" font-style="oblique" font-size="10.00" fill="#000000">DATETIME</text>
<polygon fill="none" stroke="#000000" points="11.8571,-104 11.8571,-124 111.8571,-124 111.8571,-104 11.8571,-104"/>
<text text-anchor="start" x="28.5305" y="-110.8" font-family="Times,serif" font-size="14.00" fill="#000000">duration:</text>
<text text-anchor="start" x="79.0754" y="-110.8" font-family="Helvetica,sans-Serif" font-style="oblique" font-size="10.00" fill="#000000">INT</text>
<polygon fill="none" stroke="#000000" points="11.8571,-84 11.8571,-104 111.8571,-104 111.8571,-84 11.8571,-84"/>
<text text-anchor="start" x="22.5857" y="-90.8" font-family="Times,serif" font-size="14.00" fill="#000000">repetitions:</text>
<text text-anchor="start" x="85.572" y="-90.8" font-family="Helvetica,sans-Serif" font-style="oblique" font-size="10.00" fill="#000000">BIT</text>
<polygon fill="none" stroke="#000000" points="11.8571,-64 11.8571,-84 111.8571,-84 111.8571,-64 11.8571,-64"/>
<text text-anchor="start" x="19.2097" y="-70.8" font-family="Times,serif" font-size="14.00" fill="#000000">calendar_id:</text>
<text text-anchor="start" x="88.3962" y="-70.8" font-family="Helvetica,sans-Serif" font-style="oblique" font-size="10.00" fill="#000000">INT</text>
<polygon fill="none" stroke="#000000" points="11.8571,-44 11.8571,-64 111.8571,-64 111.8571,-44 11.8571,-44"/>
<text text-anchor="start" x="24.5271" y="-50.8" font-family="Times,serif" font-size="14.00" fill="#000000">transports:</text>
<text text-anchor="start" x="83.6306" y="-50.8" font-family="Helvetica,sans-Serif" font-style="oblique" font-size="10.00" fill="#000000">BIT</text>
</g>
<!-- events&#45;&gt;calendars -->
<g id="edge3" class="edge">
<title>events:calendar_id&#45;&gt;calendars:id</title>
<path fill="none" stroke="#444444" stroke-dasharray="5,2" d="M111.8571,-74C184.7183,-74 205.4951,-74 273.4733,-74"/>
<polygon fill="#444444" stroke="#444444" points="283.8572,-77.5 273.8571,-74.0001 283.8571,-70.5 283.8572,-77.5"/>
</g>
<!-- settings -->
<g id="node4" class="node">
<title>settings</title>
<polygon fill="#dddddd" stroke="transparent" points="235.8571,-350 235.8571,-370 419.8571,-370 419.8571,-350 235.8571,-350"/>
<polygon fill="none" stroke="#000000" points="235.8571,-350 235.8571,-370 419.8571,-370 419.8571,-350 235.8571,-350"/>
<text text-anchor="start" x="306.4675" y="-355.8" font-family="Times,serif" font-size="14.00" fill="#000000">settings</text>
<polygon fill="none" stroke="#000000" points="235.8571,-330 235.8571,-350 419.8571,-350 419.8571,-330 235.8571,-330"/>
<text text-anchor="start" x="312.4133" y="-336.8" font-family="Times,serif" font-size="14.00" fill="#000000">id:</text>
<text text-anchor="start" x="327.1926" y="-336.8" font-family="Helvetica,sans-Serif" font-style="oblique" font-size="10.00" fill="#000000">INT</text>
<polygon fill="none" stroke="#000000" points="235.8571,-310 235.8571,-330 419.8571,-330 419.8571,-310 235.8571,-310"/>
<text text-anchor="start" x="297.2512" y="-316.8" font-family="Times,serif" font-size="14.00" fill="#000000">user_id:</text>
<text text-anchor="start" x="342.3547" y="-316.8" font-family="Helvetica,sans-Serif" font-style="oblique" font-size="10.00" fill="#000000">INT</text>
<polygon fill="none" stroke="#000000" points="235.8571,-290 235.8571,-310 419.8571,-310 419.8571,-290 235.8571,-290"/>
<text text-anchor="start" x="289.3684" y="-296.8" font-family="Times,serif" font-size="14.00" fill="#000000">eco_mode:</text>
<text text-anchor="start" x="350.7893" y="-296.8" font-family="Helvetica,sans-Serif" font-style="oblique" font-size="10.00" fill="#000000">BIT</text>
<polygon fill="none" stroke="#000000" points="235.8571,-270 235.8571,-290 419.8571,-290 419.8571,-270 235.8571,-270"/>
<text text-anchor="start" x="253.32" y="-276.8" font-family="Times,serif" font-size="14.00" fill="#000000">max_walking_distance:</text>
<text text-anchor="start" x="386.2859" y="-276.8" font-family="Helvetica,sans-Serif" font-style="oblique" font-size="10.00" fill="#000000">INT</text>
<polygon fill="none" stroke="#000000" points="235.8571,-250 235.8571,-270 419.8571,-270 419.8571,-250 235.8571,-250"/>
<text text-anchor="start" x="257.9821" y="-256.8" font-family="Times,serif" font-size="14.00" fill="#000000">max_biking_distance:</text>
<text text-anchor="start" x="381.6237" y="-256.8" font-family="Helvetica,sans-Serif" font-style="oblique" font-size="10.00" fill="#000000">INT</text>
<polygon fill="none" stroke="#000000" points="235.8571,-230 235.8571,-250 419.8571,-250 419.8571,-230 235.8571,-230"/>
<text text-anchor="start" x="238.5412" y="-236.8" font-family="Times,serif" font-size="14.00" fill="#000000">start_public_transportation:</text>
<text text-anchor="start" x="393.2863" y="-236.8" font-family="Helvetica,sans-Serif" font-style="oblique" font-size="10.00" fill="#000000">TIME</text>
<polygon fill="none" stroke="#000000" points="235.8571,-210 235.8571,-230 419.8571,-230 419.8571,-210 235.8571,-210"/>
<text text-anchor="start" x="240.486" y="-216.8" font-family="Times,serif" font-size="14.00" fill="#000000">end_public_transportation:</text>
<text text-anchor="start" x="391.3415" y="-216.8" font-family="Helvetica,sans-Serif" font-style="oblique" font-size="10.00" fill="#000000">TIME</text>
<polygon fill="none" stroke="#000000" points="235.8571,-190 235.8571,-210 419.8571,-210 419.8571,-190 235.8571,-190"/>
<text text-anchor="start" x="277.3166" y="-196.8" font-family="Times,serif" font-size="14.00" fill="#000000">enjoy_enabled:</text>
<text text-anchor="start" x="362.841" y="-196.8" font-family="Helvetica,sans-Serif" font-style="oblique" font-size="10.00" fill="#000000">BIT</text>
<polygon fill="none" stroke="#000000" points="235.8571,-170 235.8571,-190 419.8571,-190 419.8571,-170 235.8571,-170"/>
<text text-anchor="start" x="273.8235" y="-176.8" font-family="Times,serif" font-size="14.00" fill="#000000">car2go_enabled:</text>
<text text-anchor="start" x="366.3342" y="-176.8" font-family="Helvetica,sans-Serif" font-style="oblique" font-size="10.00" fill="#000000">BIT</text>
<polygon fill="none" stroke="#000000" points="235.8571,-150 235.8571,-170 419.8571,-170 419.8571,-150 235.8571,-150"/>
<text text-anchor="start" x="280.4304" y="-156.8" font-family="Times,serif" font-size="14.00" fill="#000000">uber_enabled:</text>
<text text-anchor="start" x="359.7273" y="-156.8" font-family="Helvetica,sans-Serif" font-style="oblique" font-size="10.00" fill="#000000">BIT</text>
<polygon fill="none" stroke="#000000" points="235.8571,-130 235.8571,-150 419.8571,-150 419.8571,-130 235.8571,-130"/>
<text text-anchor="start" x="271.8718" y="-136.8" font-family="Times,serif" font-size="14.00" fill="#000000">mobike_enabled:</text>
<text text-anchor="start" x="368.2859" y="-136.8" font-family="Helvetica,sans-Serif" font-style="oblique" font-size="10.00" fill="#000000">BIT</text>
</g>
<!-- settings&#45;&gt;users -->
<g id="edge4" class="edge">
<title>settings:user_id&#45;&gt;users:id</title>
<path fill="none" stroke="#444444" stroke-dasharray="5,2" d="M419.8571,-320C472.3571,-320 487.9431,-320 535.8288,-320"/>
<polygon fill="#444444" stroke="#444444" points="545.8572,-323.5 535.8571,-320.0001 545.8571,-316.5 545.8572,-323.5"/>
</g>
</g>
</svg>
